<?xml version="1.0" encoding="UTF-8"?>
<svg width="10px" height="29px" viewBox="0 0 10 29" version="1.1" xmlns="http://www.w3.org/2000/svg" xmlns:xlink="http://www.w3.org/1999/xlink">
    <!-- Generator: Sketch 49 (51002) - http://www.bohemiancoding.com/sketch -->
    <title></title>
    <desc>Created with Sketch.</desc>
    <defs></defs>
    <g id="MobSite" stroke="none" stroke-width="1" fill="none" fill-rule="evenodd">
        <g id="01_Detail" transform="translate(-328.000000, -1872.000000)" fill="#9ECDB5">
            <g id="artikel-sebelumnya" transform="translate(185.000000, 1856.000000)">
                <path d="M152.106955,16 C152.189478,16 152.266105,16.0229962 152.336839,16.0689894 C152.407573,16.1149826 152.472411,16.1839713 152.531356,16.2759577 C152.649246,16.4599304 152.708191,16.6852935 152.708191,16.9520539 C152.708191,17.2188143 152.649246,17.4441775 152.531356,17.6281502 L144.467723,30.2118196 L152.425256,42.6299143 C152.543146,42.813887 152.60209,43.0346509 152.60209,43.2922127 C152.60209,43.5497745 152.543146,43.7705384 152.425256,43.9545111 C152.307366,44.1384838 152.162953,44.2304688 151.992013,44.2304688 C151.821072,44.2304688 151.676659,44.1384838 151.558769,43.9545111 L143.176834,30.8741179 C143.058944,30.6901452 143,30.4693813 143,30.2118196 C143,29.9542578 143.058944,29.7334939 143.176834,29.5495212 L151.682553,16.2759577 C151.741498,16.1839713 151.809284,16.1149826 151.885912,16.0689894 C151.962541,16.0229962 152.036221,16 152.106955,16 Z" id="" transform="translate(147.854095, 30.115234) scale(-1, 1) translate(-147.854095, -30.115234) "></path>
            </g>
        </g>
    </g>
</svg>