<?xml version="1.0" encoding="UTF-8"?>
<svg width="20px" height="20px" viewBox="0 0 20 20" version="1.1" xmlns="http://www.w3.org/2000/svg" xmlns:xlink="http://www.w3.org/1999/xlink">
    <!-- Generator: Sketch 49.1 (51147) - http://www.bohemiancoding.com/sketch -->
    <title>Group 5</title>
    <desc>Created with Sketch.</desc>
    <defs></defs>
    <g id="MobSite" stroke="none" stroke-width="1" fill="none" fill-rule="evenodd">
        <g id="00_Home---Gift-Registry-List" transform="translate(-30.000000, -198.000000)">
            <g id="gift-listed" transform="translate(15.000000, 183.000000)">
                <g id="Group-7" transform="translate(15.000000, 15.000000)">
                    <g id="Group-5">
                        <rect id="Rectangle-15" fill="#9ECDB5" x="0" y="0" width="20" height="20" rx="10"></rect>
                        <path d="M14.40625,7.25 C14.6406262,7.25 14.8398429,7.33203043 15.0039062,7.49609375 C15.1679696,7.66015707 15.25,7.85937383 15.25,8.09375 L15.25,9.40625 C15.25,9.64062617 15.1679696,9.83984293 15.0039062,10.0039062 C14.8398429,10.1679696 14.6406262,10.25 14.40625,10.25 L14.5,10.25 L14.5,13.90625 C14.5,14.1406262 14.4179696,14.3398429 14.2539062,14.5039062 C14.0898429,14.6679696 13.8906262,14.75 13.65625,14.75 L6.34375,14.75 C6.10937383,14.75 5.91015707,14.6679696 5.74609375,14.5039062 C5.58203043,14.3398429 5.5,14.1406262 5.5,13.90625 L5.5,10.25 L5.59375,10.25 C5.35937383,10.25 5.16015707,10.1679696 4.99609375,10.0039062 C4.83203043,9.83984293 4.75,9.64062617 4.75,9.40625 L4.75,8.09375 C4.75,7.85937383 4.83203043,7.66015707 4.99609375,7.49609375 C5.16015707,7.33203043 5.35937383,7.25 5.59375,7.25 L8.5,7.25 C8.08593543,7.25 7.73242334,7.10351709 7.43945312,6.81054688 C7.14648291,6.51757666 7,6.16406457 7,5.75 C7,5.33593543 7.14648291,4.98242334 7.43945312,4.68945312 C7.73242334,4.39648291 8.08593543,4.25 8.5,4.25 C8.91406457,4.25 9.26757666,4.39648291 9.56054688,4.68945312 C9.85351709,4.98242334 10,5.33593543 10,5.75 C10,5.33593543 10.1464829,4.98242334 10.4394531,4.68945312 C10.7324233,4.39648291 11.0859354,4.25 11.5,4.25 C11.9140646,4.25 12.2675767,4.39648291 12.5605469,4.68945312 C12.8535171,4.98242334 13,5.33593543 13,5.75 C13,6.16406457 12.8535171,6.51757666 12.5605469,6.81054688 C12.2675767,7.10351709 11.9140646,7.25 11.5,7.25 L14.40625,7.25 Z M8.5,6.40625 L9.15625,6.40625 L9.15625,5.75 C9.15625,5.5703116 9.09179752,5.41601627 8.96289062,5.28710938 C8.83398373,5.15820248 8.6796884,5.09375 8.5,5.09375 C8.3203116,5.09375 8.16601627,5.15820248 8.03710938,5.28710938 C7.90820248,5.41601627 7.84375,5.5703116 7.84375,5.75 C7.84375,5.9296884 7.90820248,6.08398373 8.03710938,6.21289062 C8.16601627,6.34179752 8.3203116,6.40625 8.5,6.40625 Z M9.578125,13.90625 L9.578125,10.25 L6.34375,10.25 L6.34375,13.90625 L9.578125,13.90625 Z M9.578125,9.40625 L9.578125,8.09375 L5.59375,8.09375 L5.59375,9.40625 L9.578125,9.40625 Z M10.84375,5.75 L10.84375,6.40625 L11.5,6.40625 C11.6796884,6.40625 11.8339837,6.34179752 11.9628906,6.21289062 C12.0917975,6.08398373 12.15625,5.9296884 12.15625,5.75 C12.15625,5.5703116 12.0917975,5.41601627 11.9628906,5.28710938 C11.8339837,5.15820248 11.6796884,5.09375 11.5,5.09375 C11.3203116,5.09375 11.1660163,5.15820248 11.0371094,5.28710938 C10.9082025,5.41601627 10.84375,5.5703116 10.84375,5.75 Z M13.65625,13.90625 L13.65625,10.25 L10.421875,10.25 L10.421875,13.90625 L13.65625,13.90625 Z M14.40625,9.40625 L14.40625,8.09375 L10.421875,8.09375 L10.421875,9.40625 L14.40625,9.40625 Z" id="gift---anticon" fill="#FFFFFF"></path>
                    </g>
                </g>
            </g>
        </g>
    </g>
</svg>