<?xml version="1.0" encoding="UTF-8"?>
<svg width="10px" height="14px" viewBox="0 0 10 14" version="1.1" xmlns="http://www.w3.org/2000/svg" xmlns:xlink="http://www.w3.org/1999/xlink">
    <!-- Generator: Sketch 49.1 (51147) - http://www.bohemiancoding.com/sketch -->
    <title>lock - anticon</title>
    <desc>Created with Sketch.</desc>
    <defs></defs>
    <g id="MobSite" stroke="none" stroke-width="1" fill="none" fill-rule="evenodd">
        <g id="00_Home---Login" transform="translate(-29.000000, -460.000000)" fill="#A4A4A4">
            <path d="M38.515625,463.6875 C38.776043,464.32292 38.90625,464.98958 38.90625,465.6875 L38.90625,472.5 C38.90625,472.770835 38.8125009,473.005207 38.625,473.203125 C38.4374991,473.401043 38.2083347,473.5 37.9375,473.5 L30.046875,473.5 C29.786457,473.5 29.5625009,473.401043 29.375,473.203125 C29.1874991,473.005207 29.09375,472.770835 29.09375,472.5 L29.09375,465.6875 C29.09375,464.98958 29.223957,464.32292 29.484375,463.6875 C29.7343763,463.062497 30.0859352,462.513023 30.5390625,462.039062 C30.9921898,461.565102 31.5104137,461.19271 32.09375,460.921875 C32.6979197,460.65104 33.33333,460.515625 34,460.515625 C34.66667,460.515625 35.3020803,460.65104 35.90625,460.921875 C36.500003,461.19271 37.0208311,461.562498 37.46875,462.03125 C37.9166689,462.510419 38.2656238,463.062497 38.515625,463.6875 Z M32.46875,461.84375 C32.0208311,462.041668 31.6145852,462.333331 31.25,462.71875 C30.8854148,463.104169 30.5989594,463.546873 30.390625,464.046875 C30.1822906,464.567711 30.078125,465.11458 30.078125,465.6875 L30.078125,466.109375 L37.921875,466.109375 L37.921875,465.6875 C37.921875,465.11458 37.8125011,464.567711 37.59375,464.046875 C37.3958323,463.546873 37.1145852,463.104169 36.75,462.71875 C36.3854148,462.333331 35.9687523,462.036459 35.5,461.828125 C35.0208309,461.609374 34.5208359,461.5 34,461.5 C33.4687473,461.5 32.9687523,461.609374 32.5,461.828125 L32.484375,461.84375 L32.46875,461.84375 Z M37.921875,467.109375 L30.078125,467.109375 L30.078125,472.515625 L37.921875,472.515625 L37.921875,467.109375 Z M33.546875,469.328125 C33.286457,469.161457 33.15625,468.921877 33.15625,468.609375 C33.15625,468.380207 33.2395825,468.182293 33.40625,468.015625 C33.5729175,467.848957 33.7734363,467.765625 34.0078125,467.765625 C34.2421887,467.765625 34.4401034,467.848957 34.6015625,468.015625 C34.7630216,468.182293 34.84375,468.380207 34.84375,468.609375 C34.84375,468.921877 34.7187512,469.161457 34.46875,469.328125 L34.46875,470.625 C34.46875,470.750001 34.4218755,470.85677 34.328125,470.945312 C34.2343745,471.033855 34.1250006,471.078125 34,471.078125 C33.8749994,471.078125 33.7682296,471.033855 33.6796875,470.945312 C33.5911454,470.85677 33.546875,470.750001 33.546875,470.625 L33.546875,469.328125 Z" id="lock---anticon"></path>
        </g>
    </g>
</svg>