<?xml version="1.0" encoding="UTF-8"?>
<svg width="12px" height="14px" viewBox="0 0 12 14" version="1.1" xmlns="http://www.w3.org/2000/svg" xmlns:xlink="http://www.w3.org/1999/xlink">
    <!-- Generator: Sketch 49.1 (51147) - http://www.bohemiancoding.com/sketch -->
    <title>user - anticon</title>
    <desc>Created with Sketch.</desc>
    <defs></defs>
    <g id="MobSite" stroke="none" stroke-width="1" fill="none" fill-rule="evenodd">
        <g id="00_Home---Login" transform="translate(-29.000000, -404.000000)" fill="#A4A4A4">
            <path d="M39.796875,415.390625 C40.0677097,416.036462 40.2083333,416.713538 40.21875,417.421875 C40.21875,417.578126 40.164063,417.710937 40.0546875,417.820312 C39.945312,417.929688 39.8125008,417.984375 39.65625,417.984375 C39.4999992,417.984375 39.367188,417.929688 39.2578125,417.820312 C39.148437,417.710937 39.09375,417.578126 39.09375,417.421875 C39.09375,416.286453 38.6953165,415.320316 37.8984375,414.523438 C37.1015585,413.726559 36.1380265,413.328125 35.0078125,413.328125 C33.8775985,413.328125 32.9140665,413.729163 32.1171875,414.53125 C31.3203085,415.333337 30.921875,416.296869 30.921875,417.421875 C30.921875,417.578126 30.867188,417.710937 30.7578125,417.820312 C30.648437,417.929688 30.5156258,417.984375 30.359375,417.984375 C30.2031242,417.984375 30.070313,417.929688 29.9609375,417.820312 C29.851562,417.710937 29.796875,417.578126 29.796875,417.421875 C29.796875,416.713538 29.9322903,416.036462 30.203125,415.390625 C30.463543,414.765622 30.8333309,414.213544 31.3125,413.734375 C31.7916691,413.255206 32.3437469,412.885418 32.96875,412.625 C33.1666677,412.53125 33.3854155,412.453125 33.625,412.390625 C32.9895802,412.182291 32.4322941,411.838544 31.953125,411.359375 C31.1197875,410.515621 30.703125,409.500006 30.703125,408.3125 C30.703125,407.124994 31.1223916,406.111983 31.9609375,405.273438 C32.7994834,404.434892 33.8124941,404.015625 35,404.015625 C36.1875059,404.015625 37.2031208,404.434892 38.046875,405.273438 C38.8906292,406.111983 39.3125,407.124994 39.3125,408.3125 C39.3125,409.500006 38.8906292,410.515621 38.046875,411.359375 C37.5677059,411.838544 37.0104198,412.182291 36.375,412.390625 C36.6041678,412.453125 36.8229156,412.53125 37.03125,412.625 C37.6562531,412.885418 38.2083309,413.255206 38.6875,413.734375 C39.1666691,414.213544 39.536457,414.765622 39.796875,415.390625 Z M32.75,410.5625 C33.3750031,411.187503 34.1249956,411.5 35,411.5 C35.8750044,411.5 36.6223927,411.187503 37.2421875,410.5625 C37.8619823,409.937497 38.171875,409.187504 38.171875,408.3125 C38.171875,407.437496 37.8619823,406.690107 37.2421875,406.070312 C36.6223927,405.450518 35.8750044,405.140625 35,405.140625 C34.1249956,405.140625 33.3776073,405.450518 32.7578125,406.070312 C32.1380177,406.690107 31.828125,407.437496 31.828125,408.3125 C31.828125,409.187504 32.1354136,409.937497 32.75,410.5625 Z" id="user---anticon"></path>
        </g>
    </g>
</svg>