<?xml version="1.0" encoding="UTF-8"?>
<svg width="16px" height="16px" viewBox="0 0 16 16" version="1.1" xmlns="http://www.w3.org/2000/svg" xmlns:xlink="http://www.w3.org/1999/xlink">
    <!-- Generator: Sketch 49.1 (51147) - http://www.bohemiancoding.com/sketch -->
    <title>message - anticon</title>
    <desc>Created with Sketch.</desc>
    <defs></defs>
    <g id="MobSite" stroke="none" stroke-width="1" fill="none" fill-rule="evenodd">
        <g id="01_Detail" transform="translate(-15.000000, -1943.000000)" fill="#4A4A4A">
            <g id="comments" transform="translate(0.000000, 1926.000000)">
                <path d="M20.171875,23.890625 C20.3385425,24.0572925 20.421875,24.2604155 20.421875,24.5 C20.421875,24.7395845 20.3385425,24.9427075 20.171875,25.109375 C20.0052075,25.2760425 19.8020845,25.359375 19.5625,25.359375 C19.3229155,25.359375 19.1197925,25.2760425 18.953125,25.109375 C18.7864575,24.9427075 18.703125,24.7395845 18.703125,24.5 C18.703125,24.2604155 18.7864575,24.0572925 18.953125,23.890625 C19.1197925,23.7239575 19.3229155,23.640625 19.5625,23.640625 C19.8020845,23.640625 20.0052075,23.7239575 20.171875,23.890625 Z M27.046875,23.890625 C27.2135425,24.0572925 27.296875,24.2604155 27.296875,24.5 C27.296875,24.7395845 27.2135425,24.9427075 27.046875,25.109375 C26.8802075,25.2760425 26.6770845,25.359375 26.4375,25.359375 C26.1979155,25.359375 25.9947925,25.2760425 25.828125,25.109375 C25.6614575,24.9427075 25.578125,24.7395845 25.578125,24.5 C25.578125,24.2604155 25.6614575,24.0572925 25.828125,23.890625 C25.9947925,23.7239575 26.1979155,23.640625 26.4375,23.640625 C26.6770845,23.640625 26.8802075,23.7239575 27.046875,23.890625 Z M23.609375,23.890625 C23.7760425,24.0572925 23.859375,24.2604155 23.859375,24.5 C23.859375,24.7395845 23.7760425,24.9427075 23.609375,25.109375 C23.4427075,25.2760425 23.2395845,25.359375 23,25.359375 C22.7604155,25.359375 22.5572925,25.2760425 22.390625,25.109375 C22.2239575,24.9427075 22.140625,24.7395845 22.140625,24.5 C22.140625,24.2604155 22.2239575,24.0572925 22.390625,23.890625 C22.5572925,23.7239575 22.7604155,23.640625 23,23.640625 C23.2395845,23.640625 23.4427075,23.7239575 23.609375,23.890625 Z M30.359375,21.5625 C30.7864605,22.5000047 31,23.4739533 31,24.484375 C31,25.5156302 30.7864605,26.494787 30.359375,27.421875 C29.953123,28.3177128 29.380212,29.1093716 28.640625,29.796875 C27.901038,30.4843784 27.0520881,31.0208314 26.09375,31.40625 C25.1041617,31.7916686 24.072922,31.984375 23,31.984375 C22.1458291,31.984375 21.3125041,31.8593763 20.5,31.609375 L18.1875,32.921875 C18.0937495,32.9739586 18.0000005,33 17.90625,33 C17.8124995,33 17.729167,32.9791669 17.65625,32.9375 C17.4791658,32.8437495 17.3750002,32.6979177 17.34375,32.5 L16.984375,29.4375 C16.3489552,28.7499966 15.8593767,27.9817751 15.515625,27.1328125 C15.1718733,26.2838499 15,25.4010463 15,24.484375 C15,23.4739533 15.2135395,22.5000047 15.640625,21.5625 C16.046877,20.6666622 16.619788,19.8697952 17.359375,19.171875 C18.098962,18.4843716 18.9479119,17.9531269 19.90625,17.578125 C20.8854216,17.1927064 21.9166613,17 23,17 C24.0833387,17 25.1145784,17.1927064 26.09375,17.578125 C27.0520881,17.9531269 27.901038,18.4843716 28.640625,19.171875 C29.380212,19.8697952 29.953123,20.6666622 30.359375,21.5625 Z M29.34375,26.953125 C29.6979184,26.1718711 29.875,25.3515668 29.875,24.4921875 C29.875,23.6328082 29.6979184,22.8125039 29.34375,22.03125 C28.9999983,21.2708295 28.5104198,20.5963571 27.875,20.0078125 C27.2395802,19.4192679 26.5104208,18.958335 25.6875,18.625 C24.8333291,18.291665 23.9375047,18.125 23,18.125 C22.0624953,18.125 21.1666709,18.291665 20.3125,18.625 C19.4895792,18.9479183 18.7604198,19.406247 18.125,20 C17.4895802,20.593753 17.0000017,21.2708295 16.65625,22.03125 C16.3020816,22.8125039 16.125,23.6302041 16.125,24.484375 C16.125,25.2864623 16.2786443,26.057288 16.5859375,26.796875 C16.8932307,27.536462 17.3385388,28.1979137 17.921875,28.78125 C18.0156255,28.8750005 18.0677083,28.9843744 18.078125,29.109375 L18.359375,31.53125 L20.15625,30.515625 C20.3020841,30.4322912 20.4583325,30.4166664 20.625,30.46875 C21.3854205,30.729168 22.1770792,30.859375 23,30.859375 C23.9375047,30.859375 24.8333291,30.6875017 25.6875,30.34375 C26.5104208,30.0208317 27.2395802,29.5677113 27.875,28.984375 C28.5104198,28.390622 28.9999983,27.7135455 29.34375,26.953125 Z" id="message---anticon"></path>
            </g>
        </g>
    </g>
</svg>