<?xml version="1.0" encoding="UTF-8"?>
<svg width="12px" height="11px" viewBox="0 0 12 11" version="1.1" xmlns="http://www.w3.org/2000/svg" xmlns:xlink="http://www.w3.org/1999/xlink">
    <!-- Generator: Sketch 49.1 (51147) - http://www.bohemiancoding.com/sketch -->
    <title></title>
    <desc>Created with Sketch.</desc>
    <defs></defs>
    <g id="MobSite" stroke="none" stroke-width="1" fill="none" fill-rule="evenodd">
        <g id="00_Home---Gift-Registry-List" transform="translate(-281.000000, -289.000000)" fill="#A4A4A4">
            <g id="gift-listed" transform="translate(15.000000, 183.000000)">
                <path d="M268.076723,116.585032 C268.079795,116.585636 268.082866,116.585938 268.085938,116.585938 C268.083595,116.585938 268.080901,116.585586 268.077856,116.584884 L268.076723,116.585032 Z M267.992188,116.539062 C267.96875,116.523437 267.949219,116.511719 267.933594,116.503906 C267.949219,116.511719 267.96875,116.523437 267.992188,116.539062 Z M277.261719,108.183594 C277.261719,108.292969 277.21875,108.388671 277.132812,108.470703 C277.046875,108.552735 276.945313,108.59375 276.828125,108.59375 L276.59375,108.59375 L276.59375,115.894531 C276.59375,116.121095 276.51172,116.314452 276.347656,116.474609 C276.183593,116.634766 275.988282,116.714844 275.761719,116.714844 L268.355469,116.714844 C268.128905,116.714844 267.933595,116.634766 267.769531,116.474609 C267.605468,116.314452 267.523438,116.121095 267.523438,115.894531 L267.523438,108.59375 L267.160156,108.59375 C267.042968,108.59375 266.94336,108.552735 266.861328,108.470703 C266.779296,108.388671 266.738281,108.291016 266.738281,108.177734 C266.738281,108.064453 266.779296,107.966797 266.861328,107.884766 C266.94336,107.802734 267.042968,107.761719 267.160156,107.761719 L269.328125,107.761719 L269.328125,107.082031 C269.328125,106.855468 269.408202,106.66211 269.568359,106.501953 C269.728516,106.341796 269.92578,106.261719 270.160156,106.261719 L273.839844,106.261719 C274.066407,106.261719 274.261718,106.341796 274.425781,106.501953 C274.589845,106.66211 274.671875,106.855468 274.671875,107.082031 L274.671875,107.761719 L276.828125,107.761719 C276.953126,107.761719 277.05664,107.802734 277.138672,107.884766 C277.220704,107.966797 277.261719,108.066406 277.261719,108.183594 Z M270.148438,107.09375 L270.148438,107.761719 L273.839844,107.761719 L273.839844,107.09375 L270.148438,107.09375 Z M275.761719,115.894531 L275.761719,108.59375 L268.355469,108.59375 L268.355469,115.894531 L275.761719,115.894531 Z M272.28125,110.128906 C272.367188,110.207032 272.410156,110.304687 272.410156,110.421875 L272.410156,114.335938 C272.410156,114.453126 272.369141,114.552734 272.287109,114.634766 C272.205078,114.716797 272.107422,114.757812 271.994141,114.757812 C271.880859,114.757812 271.783204,114.716797 271.701172,114.634766 C271.61914,114.552734 271.578125,114.453126 271.578125,114.335938 L271.578125,110.421875 C271.578125,110.304687 271.61914,110.205079 271.701172,110.123047 C271.783204,110.041015 271.880859,110 271.994141,110 C272.107422,110 272.203125,110.042968 272.28125,110.128906 Z M270.007812,110.128906 C270.09375,110.207032 270.136719,110.304687 270.136719,110.421875 L270.136719,114.335938 C270.136719,114.453126 270.095704,114.552734 270.013672,114.634766 C269.93164,114.716797 269.832032,114.757812 269.714844,114.757812 C269.597656,114.757812 269.498047,114.716797 269.416016,114.634766 C269.333984,114.552734 269.292969,114.453126 269.292969,114.335938 L269.292969,110.421875 C269.292969,110.304687 269.333984,110.205079 269.416016,110.123047 C269.498047,110.041015 269.597656,110 269.714844,110 C269.832032,110 269.929687,110.042968 270.007812,110.128906 Z M274.542969,110.128906 C274.628907,110.207032 274.671875,110.304687 274.671875,110.421875 L274.671875,114.335938 C274.671875,114.453126 274.63086,114.552734 274.548828,114.634766 C274.466796,114.716797 274.367188,114.757812 274.25,114.757812 C274.132812,114.757812 274.033204,114.716797 273.951172,114.634766 C273.86914,114.552734 273.828125,114.453126 273.828125,114.335938 L273.828125,110.421875 C273.828125,110.304687 273.86914,110.205079 273.951172,110.123047 C274.033204,110.041015 274.132812,110 274.25,110 C274.367188,110 274.464843,110.042968 274.542969,110.128906 Z" id=""></path>
            </g>
        </g>
    </g>
</svg>