<?xml version="1.0" encoding="UTF-8"?>
<svg width="16px" height="16px" viewBox="0 0 16 16" version="1.1" xmlns="http://www.w3.org/2000/svg" xmlns:xlink="http://www.w3.org/1999/xlink">
    <!-- Generator: Sketch 49.1 (51147) - http://www.bohemiancoding.com/sketch -->
    <title>message - anticon</title>
    <desc>Created with Sketch.</desc>
    <defs></defs>
    <g id="MobSite" stroke="none" stroke-width="1" fill="none" fill-rule="evenodd">
        <g id="01_Detail---Loggedin" transform="translate(-15.000000, -1694.000000)" fill="#61634F">
            <g id="comments" transform="translate(0.000000, 1692.000000)">
                <path d="M20.171875,8.890625 C20.3385425,9.0572925 20.421875,9.26041547 20.421875,9.5 C20.421875,9.73958453 20.3385425,9.9427075 20.171875,10.109375 C20.0052075,10.2760425 19.8020845,10.359375 19.5625,10.359375 C19.3229155,10.359375 19.1197925,10.2760425 18.953125,10.109375 C18.7864575,9.9427075 18.703125,9.73958453 18.703125,9.5 C18.703125,9.26041547 18.7864575,9.0572925 18.953125,8.890625 C19.1197925,8.7239575 19.3229155,8.640625 19.5625,8.640625 C19.8020845,8.640625 20.0052075,8.7239575 20.171875,8.890625 Z M27.046875,8.890625 C27.2135425,9.0572925 27.296875,9.26041547 27.296875,9.5 C27.296875,9.73958453 27.2135425,9.9427075 27.046875,10.109375 C26.8802075,10.2760425 26.6770845,10.359375 26.4375,10.359375 C26.1979155,10.359375 25.9947925,10.2760425 25.828125,10.109375 C25.6614575,9.9427075 25.578125,9.73958453 25.578125,9.5 C25.578125,9.26041547 25.6614575,9.0572925 25.828125,8.890625 C25.9947925,8.7239575 26.1979155,8.640625 26.4375,8.640625 C26.6770845,8.640625 26.8802075,8.7239575 27.046875,8.890625 Z M23.609375,8.890625 C23.7760425,9.0572925 23.859375,9.26041547 23.859375,9.5 C23.859375,9.73958453 23.7760425,9.9427075 23.609375,10.109375 C23.4427075,10.2760425 23.2395845,10.359375 23,10.359375 C22.7604155,10.359375 22.5572925,10.2760425 22.390625,10.109375 C22.2239575,9.9427075 22.140625,9.73958453 22.140625,9.5 C22.140625,9.26041547 22.2239575,9.0572925 22.390625,8.890625 C22.5572925,8.7239575 22.7604155,8.640625 23,8.640625 C23.2395845,8.640625 23.4427075,8.7239575 23.609375,8.890625 Z M30.359375,6.5625 C30.7864605,7.50000469 31,8.47395328 31,9.484375 C31,10.5156302 30.7864605,11.494787 30.359375,12.421875 C29.953123,13.3177128 29.380212,14.1093716 28.640625,14.796875 C27.901038,15.4843784 27.0520881,16.0208314 26.09375,16.40625 C25.1041617,16.7916686 24.072922,16.984375 23,16.984375 C22.1458291,16.984375 21.3125041,16.8593763 20.5,16.609375 L18.1875,17.921875 C18.0937495,17.9739586 18.0000005,18 17.90625,18 C17.8124995,18 17.729167,17.9791669 17.65625,17.9375 C17.4791658,17.8437495 17.3750002,17.6979177 17.34375,17.5 L16.984375,14.4375 C16.3489552,13.7499966 15.8593767,12.9817751 15.515625,12.1328125 C15.1718733,11.2838499 15,10.4010463 15,9.484375 C15,8.47395328 15.2135395,7.50000469 15.640625,6.5625 C16.046877,5.66666219 16.619788,4.86979516 17.359375,4.171875 C18.098962,3.48437156 18.9479119,2.95312688 19.90625,2.578125 C20.8854216,2.19270641 21.9166613,2 23,2 C24.0833387,2 25.1145784,2.19270641 26.09375,2.578125 C27.0520881,2.95312688 27.901038,3.48437156 28.640625,4.171875 C29.380212,4.86979516 29.953123,5.66666219 30.359375,6.5625 Z M29.34375,11.953125 C29.6979184,11.1718711 29.875,10.3515668 29.875,9.4921875 C29.875,8.6328082 29.6979184,7.81250391 29.34375,7.03125 C28.9999983,6.27082953 28.5104198,5.59635711 27.875,5.0078125 C27.2395802,4.41926789 26.5104208,3.958335 25.6875,3.625 C24.8333291,3.291665 23.9375047,3.125 23,3.125 C22.0624953,3.125 21.1666709,3.291665 20.3125,3.625 C19.4895792,3.94791828 18.7604198,4.40624703 18.125,5 C17.4895802,5.59375297 17.0000017,6.27082953 16.65625,7.03125 C16.3020816,7.81250391 16.125,8.63020406 16.125,9.484375 C16.125,10.2864623 16.2786443,11.057288 16.5859375,11.796875 C16.8932307,12.536462 17.3385388,13.1979137 17.921875,13.78125 C18.0156255,13.8750005 18.0677083,13.9843744 18.078125,14.109375 L18.359375,16.53125 L20.15625,15.515625 C20.3020841,15.4322913 20.4583325,15.4166664 20.625,15.46875 C21.3854205,15.729168 22.1770792,15.859375 23,15.859375 C23.9375047,15.859375 24.8333291,15.6875017 25.6875,15.34375 C26.5104208,15.0208317 27.2395802,14.5677113 27.875,13.984375 C28.5104198,13.390622 28.9999983,12.7135455 29.34375,11.953125 Z" id="message---anticon"></path>
            </g>
        </g>
    </g>
</svg>