<?xml version="1.0" encoding="UTF-8"?>
<svg width="12px" height="11px" viewBox="0 0 12 11" version="1.1" xmlns="http://www.w3.org/2000/svg" xmlns:xlink="http://www.w3.org/1999/xlink">
    <!-- Generator: Sketch 49.1 (51147) - http://www.bohemiancoding.com/sketch -->
    <title>edit - anticon</title>
    <desc>Created with Sketch.</desc>
    <defs></defs>
    <g id="MobSite" stroke="none" stroke-width="1" fill="none" fill-rule="evenodd">
        <g id="00_Home---Gift-Registry-List" transform="translate(-166.000000, -289.000000)" fill="#A4A4A4">
            <g id="gift-listed" transform="translate(15.000000, 183.000000)">
                <path d="M161.828125,115.90625 C161.945313,115.90625 162.044921,115.947265 162.126953,116.029297 C162.208985,116.111329 162.25,116.210937 162.25,116.328125 C162.25,116.445313 162.208985,116.544921 162.126953,116.626953 C162.044921,116.708985 161.945313,116.75 161.828125,116.75 L152.171875,116.75 C152.054687,116.75 151.955079,116.708985 151.873047,116.626953 C151.791015,116.544921 151.75,116.445313 151.75,116.328125 C151.75,116.210937 151.791015,116.111329 151.873047,116.029297 C151.955079,115.947265 152.054687,115.90625 152.171875,115.90625 L161.828125,115.90625 Z M154.46875,114.523438 C154.312499,114.585938 154.175782,114.558594 154.058594,114.441406 C153.941406,114.324218 153.914062,114.187501 153.976562,114.03125 L155.148438,111.277344 C155.164063,111.230469 155.191406,111.1875 155.230469,111.148438 L159.882812,106.496094 C160.046876,106.33203 160.246093,106.25 160.480469,106.25 C160.714845,106.25 160.914062,106.33203 161.078125,106.496094 L162.003906,107.421875 C162.16797,107.585938 162.25,107.785155 162.25,108.019531 C162.25,108.253907 162.16797,108.453124 162.003906,108.617188 L157.351562,113.28125 C157.3125,113.3125 157.273438,113.335937 157.234375,113.351562 L154.46875,114.523438 Z M160.480469,107.09375 L159.753906,107.820312 L160.679688,108.746094 L161.40625,108.019531 L160.480469,107.09375 Z M155.886719,111.6875 L155.207031,113.292969 L156.8125,112.613281 L160.082031,109.34375 L159.15625,108.417969 L155.886719,111.6875 Z" id="edit---anticon"></path>
            </g>
        </g>
    </g>
</svg>