<?xml version="1.0" encoding="UTF-8"?>
<svg width="15px" height="14px" viewBox="0 0 15 14" version="1.1" xmlns="http://www.w3.org/2000/svg" xmlns:xlink="http://www.w3.org/1999/xlink">
    <!-- Generator: Sketch 49.1 (51147) - http://www.bohemiancoding.com/sketch -->
    <title>share-alt - anticon</title>
    <desc>Created with Sketch.</desc>
    <defs></defs>
    <g id="MobSite" stroke="none" stroke-width="1" fill="none" fill-rule="evenodd">
        <g id="00_Home---Post-Category" transform="translate(-275.000000, -1632.000000)" fill="#61634F">
            <g id="Group-4" transform="translate(0.000000, 143.000000)">
                <g id="best-post-percategory" transform="translate(15.000000, 1172.000000)">
                    <path d="M271.71875,326.359375 C272.35417,326.359375 272.898435,326.585935 273.351562,327.039062 C273.80469,327.49219 274.03125,328.036455 274.03125,328.671875 C274.03125,329.307295 273.80469,329.85156 273.351562,330.304688 C272.898435,330.757815 272.35417,330.984375 271.71875,330.984375 C271.08333,330.984375 270.539065,330.757815 270.085938,330.304688 C269.63281,329.85156 269.40625,329.307295 269.40625,328.671875 L269.40625,328.515625 L265.609375,325.828125 C265.328124,326.22396 264.966148,326.539061 264.523438,326.773438 C264.080727,327.007814 263.604169,327.125 263.09375,327.125 C262.239579,327.125 261.51042,326.82292 260.90625,326.21875 C260.30208,325.61458 260,324.885421 260,324.03125 C260,323.177079 260.30208,322.44792 260.90625,321.84375 C261.51042,321.23958 262.239579,320.9375 263.09375,320.9375 C263.979171,320.9375 264.729164,321.260413 265.34375,321.90625 L269.46875,319.828125 C269.427083,319.661457 269.40625,319.489584 269.40625,319.3125 C269.40625,318.67708 269.63281,318.132815 270.085938,317.679688 C270.539065,317.22656 271.08333,317 271.71875,317 C272.35417,317 272.898435,317.22656 273.351562,317.679688 C273.80469,318.132815 274.03125,318.67708 274.03125,319.3125 C274.03125,319.94792 273.80469,320.492185 273.351562,320.945312 C272.898435,321.39844 272.35417,321.625 271.71875,321.625 C271.02083,321.625 270.437502,321.359378 269.96875,320.828125 L265.953125,322.859375 C266.109376,323.234377 266.1875,323.624998 266.1875,324.03125 C266.1875,324.281251 266.15625,324.531249 266.09375,324.78125 L269.78125,327.40625 C270.000001,327.083332 270.278644,326.828126 270.617188,326.640625 C270.955731,326.453124 271.322915,326.359375 271.71875,326.359375 Z M270.875,318.484375 C270.645832,318.713543 270.53125,318.992186 270.53125,319.320312 C270.53125,319.648439 270.648436,319.927082 270.882812,320.15625 C271.117189,320.385418 271.395832,320.5 271.71875,320.5 C272.041668,320.5 272.320311,320.385418 272.554688,320.15625 C272.789064,319.927082 272.90625,319.648439 272.90625,319.320312 C272.90625,318.992186 272.789064,318.710939 272.554688,318.476562 C272.320311,318.242186 272.041668,318.125 271.71875,318.125 C271.395832,318.125 271.114585,318.24479 270.875,318.484375 Z M264.484375,325.421875 C264.869794,325.036456 265.0625,324.572919 265.0625,324.03125 C265.0625,323.489581 264.869794,323.026044 264.484375,322.640625 C264.098956,322.255206 263.635419,322.0625 263.09375,322.0625 C262.552081,322.0625 262.088544,322.255206 261.703125,322.640625 C261.317706,323.026044 261.125,323.489581 261.125,324.03125 C261.125,324.572919 261.317706,325.036456 261.703125,325.421875 C262.088544,325.807294 262.552081,326 263.09375,326 C263.635419,326 264.098956,325.807294 264.484375,325.421875 Z M272.546875,329.515625 C272.78646,329.286457 272.90625,329.007814 272.90625,328.679688 C272.90625,328.351561 272.789064,328.070314 272.554688,327.835938 C272.320311,327.601561 272.041668,327.484375 271.71875,327.484375 C271.395832,327.484375 271.117189,327.601561 270.882812,327.835938 C270.648436,328.070314 270.53125,328.351561 270.53125,328.679688 C270.53125,329.007814 270.648436,329.286457 270.882812,329.515625 C271.117189,329.744793 271.395832,329.859375 271.71875,329.859375 C272.041668,329.859375 272.317707,329.744793 272.546875,329.515625 Z" id="share-alt---anticon"></path>
                </g>
            </g>
        </g>
    </g>
</svg>