<?xml version="1.0" encoding="UTF-8"?>
<svg width="12px" height="10px" viewBox="0 0 12 10" version="1.1" xmlns="http://www.w3.org/2000/svg" xmlns:xlink="http://www.w3.org/1999/xlink">
    <!-- Generator: Sketch 49.1 (51147) - http://www.bohemiancoding.com/sketch -->
    <title></title>
    <desc>Created with Sketch.</desc>
    <defs></defs>
    <g id="MobSite" stroke="none" stroke-width="1" fill="none" fill-rule="evenodd">
        <g id="00_Home---Gift-Registry-List" transform="translate(-30.000000, -289.000000)" fill="#A4A4A4">
            <g id="gift-listed" transform="translate(15.000000, 183.000000)">
                <path d="M26.578125,113 C26.6953131,113 26.7949215,113.041015 26.8769531,113.123047 C26.9589848,113.205079 27,113.304687 27,113.421875 C27,113.539063 26.9589848,113.638671 26.8769531,113.720703 C26.7949215,113.802735 26.6953131,113.84375 26.578125,113.84375 L24.75,113.84375 L24.75,115.578125 C24.75,115.695313 24.7089848,115.794921 24.6269531,115.876953 C24.5449215,115.958985 24.4453131,116 24.328125,116 C24.2109369,116 24.1113285,115.958985 24.0292969,115.876953 C23.9472652,115.794921 23.90625,115.695313 23.90625,115.578125 L23.90625,113.84375 L22.171875,113.84375 C22.0546869,113.84375 21.9550785,113.802735 21.8730469,113.720703 C21.7910152,113.638671 21.75,113.539063 21.75,113.421875 C21.75,113.304687 21.7910152,113.205079 21.8730469,113.123047 C21.9550785,113.041015 22.0546869,113 22.171875,113 L23.90625,113 L23.90625,111.171875 C23.90625,111.054687 23.9472652,110.955079 24.0292969,110.873047 C24.1113285,110.791015 24.2109369,110.75 24.328125,110.75 C24.4453131,110.75 24.5449215,110.791015 24.6269531,110.873047 C24.7089848,110.955079 24.75,111.054687 24.75,111.171875 L24.75,113 L26.578125,113 Z M26.15625,107.75 C26.3906262,107.75 26.5898429,107.83203 26.7539062,107.996094 C26.9179696,108.160157 27,108.359374 27,108.59375 L27,110.328125 C27,110.445313 26.9589848,110.544921 26.8769531,110.626953 C26.7949215,110.708985 26.6953131,110.75 26.578125,110.75 C26.4609369,110.75 26.3613285,110.708985 26.2792969,110.626953 C26.1972652,110.544921 26.15625,110.445313 26.15625,110.328125 L26.15625,108.59375 L15.84375,108.59375 L15.84375,115.15625 L21.328125,115.15625 C21.4453131,115.15625 21.5449215,115.197265 21.6269531,115.279297 C21.7089848,115.361329 21.75,115.460937 21.75,115.578125 C21.75,115.695313 21.7089848,115.794921 21.6269531,115.876953 C21.5449215,115.958985 21.4453131,116 21.328125,116 L15.84375,116 C15.6093738,116 15.4101571,115.91797 15.2460938,115.753906 C15.0820304,115.589843 15,115.390626 15,115.15625 L15,107.09375 C15,106.859374 15.0820304,106.660157 15.2460938,106.496094 C15.4101571,106.33203 15.6093738,106.25 15.84375,106.25 L19.6289062,106.25 C19.8164072,106.25 19.9843743,106.304687 20.1328125,106.414062 C20.2812507,106.523438 20.3828122,106.664062 20.4375,106.835938 L20.7304688,107.75 L26.15625,107.75 Z M15.84375,107.75 L19.8398438,107.75 L19.6289062,107.09375 L15.84375,107.09375 L15.84375,107.75 Z" id=""></path>
            </g>
        </g>
    </g>
</svg>