<?xml version="1.0" encoding="UTF-8"?>
<svg width="14px" height="13px" viewBox="0 0 14 13" version="1.1" xmlns="http://www.w3.org/2000/svg" xmlns:xlink="http://www.w3.org/1999/xlink">
    <!-- Generator: Sketch 49.1 (51147) - http://www.bohemiancoding.com/sketch -->
    <title>close - anticon</title>
    <desc>Created with Sketch.</desc>
    <defs></defs>
    <g id="MobSite" stroke="none" stroke-width="1" fill="none" fill-rule="evenodd">
        <g id="00_Home---Menu-Loggedin" transform="translate(-328.000000, -21.000000)" fill="#61634F">
            <g id="navbar">
                <path d="M336.09375,27.5585938 L341.054688,32.5390625 C341.210938,32.6822924 341.289062,32.8613271 341.289062,33.0761719 C341.289062,33.2910167 341.214193,33.4733065 341.064453,33.6230469 C340.914713,33.7727872 340.732423,33.8476562 340.517578,33.8476562 C340.302733,33.8476562 340.123699,33.769532 339.980469,33.6132812 L335,28.6328125 L330.019531,33.6132812 C329.876301,33.769532 329.697267,33.8476562 329.482422,33.8476562 C329.267577,33.8476562 329.085287,33.7727872 328.935547,33.6230469 C328.785807,33.4733065 328.710938,33.2910167 328.710938,33.0761719 C328.710938,32.8613271 328.789062,32.6822924 328.945312,32.5390625 L333.90625,27.5585938 L328.945312,22.578125 C328.789062,22.4348951 328.710938,22.2558604 328.710938,22.0410156 C328.710938,21.8261708 328.785807,21.643881 328.935547,21.4941406 C329.085287,21.3444003 329.267577,21.2695312 329.482422,21.2695312 C329.697267,21.2695312 329.876301,21.3476555 330.019531,21.5039062 L335,26.4648438 L339.980469,21.5039062 C340.123699,21.3476555 340.302733,21.2695312 340.517578,21.2695312 C340.732423,21.2695312 340.914713,21.3444003 341.064453,21.4941406 C341.214193,21.643881 341.289062,21.8261708 341.289062,22.0410156 C341.289062,22.2558604 341.210938,22.4348951 341.054688,22.578125 L336.09375,27.5585938 Z" id="close---anticon"></path>
            </g>
        </g>
    </g>
</svg>