<?xml version="1.0" encoding="UTF-8"?>
<svg width="18px" height="19px" viewBox="0 0 18 19" version="1.1" xmlns="http://www.w3.org/2000/svg" xmlns:xlink="http://www.w3.org/1999/xlink">
    <!-- Generator: Sketch 49.1 (51147) - http://www.bohemiancoding.com/sketch -->
    <title>appstore-o - anticon</title>
    <desc>Created with Sketch.</desc>
    <defs></defs>
    <g id="MobSite" stroke="none" stroke-width="1" fill="none" fill-rule="evenodd">
        <g id="00_Home---Menu" transform="translate(-16.000000, -106.000000)" fill="#9ECDB5">
            <path d="M22.7734375,108.15625 L17.65625,108.15625 L17.65625,113.273438 L22.7734375,113.273438 L22.7734375,108.15625 Z M22.7734375,106.75 C23.1640645,106.75 23.4960924,106.886717 23.7695312,107.160156 C24.0429701,107.433595 24.1796875,107.765623 24.1796875,108.15625 L24.1796875,113.273438 C24.1796875,113.664064 24.0429701,113.996092 23.7695312,114.269531 C23.4960924,114.54297 23.1640645,114.679688 22.7734375,114.679688 L17.65625,114.679688 C17.265623,114.679688 16.9335951,114.54297 16.6601562,114.269531 C16.3867174,113.996092 16.25,113.664064 16.25,113.273438 L16.25,108.15625 C16.25,107.765623 16.3867174,107.433595 16.6601562,107.160156 C16.9335951,106.886717 17.265623,106.75 17.65625,106.75 L22.7734375,106.75 Z M32.34375,108.15625 L27.2265625,108.15625 L27.2265625,113.273438 L32.34375,113.273438 L32.34375,108.15625 Z M32.34375,106.75 C32.734377,106.75 33.0664049,106.886717 33.3398438,107.160156 C33.6132826,107.433595 33.75,107.765623 33.75,108.15625 L33.75,113.273438 C33.75,113.664064 33.6132826,113.996092 33.3398438,114.269531 C33.0664049,114.54297 32.734377,114.679688 32.34375,114.679688 L27.2265625,114.679688 C26.8359355,114.679688 26.5039076,114.54297 26.2304688,114.269531 C25.9570299,113.996092 25.8203125,113.664064 25.8203125,113.273438 L25.8203125,108.15625 C25.8203125,107.765623 25.9570299,107.433595 26.2304688,107.160156 C26.5039076,106.886717 26.8359355,106.75 27.2265625,106.75 L32.34375,106.75 Z M22.7734375,117.726562 L17.65625,117.726562 L17.65625,122.84375 L22.7734375,122.84375 L22.7734375,117.726562 Z M22.7734375,116.320312 C23.1640645,116.320312 23.4960924,116.45703 23.7695312,116.730469 C24.0429701,117.003908 24.1796875,117.335936 24.1796875,117.726562 L24.1796875,122.84375 C24.1796875,123.234377 24.0429701,123.566405 23.7695312,123.839844 C23.4960924,124.113283 23.1640645,124.25 22.7734375,124.25 L17.65625,124.25 C17.265623,124.25 16.9335951,124.113283 16.6601562,123.839844 C16.3867174,123.566405 16.25,123.234377 16.25,122.84375 L16.25,117.726562 C16.25,117.335936 16.3867174,117.003908 16.6601562,116.730469 C16.9335951,116.45703 17.265623,116.320312 17.65625,116.320312 L22.7734375,116.320312 Z M32.34375,117.726562 L27.2265625,117.726562 L27.2265625,122.84375 L32.34375,122.84375 L32.34375,117.726562 Z M32.34375,116.320312 C32.734377,116.320312 33.0664049,116.45703 33.3398438,116.730469 C33.6132826,117.003908 33.75,117.335936 33.75,117.726562 L33.75,122.84375 C33.75,123.234377 33.6132826,123.566405 33.3398438,123.839844 C33.0664049,124.113283 32.734377,124.25 32.34375,124.25 L27.2265625,124.25 C26.8359355,124.25 26.5039076,124.113283 26.2304688,123.839844 C25.9570299,123.566405 25.8203125,123.234377 25.8203125,122.84375 L25.8203125,117.726562 C25.8203125,117.335936 25.9570299,117.003908 26.2304688,116.730469 C26.5039076,116.45703 26.8359355,116.320312 27.2265625,116.320312 L32.34375,116.320312 Z" id="appstore-o---anticon"></path>
        </g>
    </g>
</svg>