<?xml version="1.0" encoding="UTF-8"?>
<svg width="18px" height="19px" viewBox="0 0 18 19" version="1.1" xmlns="http://www.w3.org/2000/svg" xmlns:xlink="http://www.w3.org/1999/xlink">
    <!-- Generator: Sketch 49.1 (51147) - http://www.bohemiancoding.com/sketch -->
    <title>home - anticon</title>
    <desc>Created with Sketch.</desc>
    <defs></defs>
    <g id="MobSite" stroke="none" stroke-width="1" fill="none" fill-rule="evenodd">
        <g id="00_Home---Menu" transform="translate(-16.000000, -146.000000)" fill="#9ECDB5">
            <path d="M33.203125,154.132812 C33.3463549,154.263021 33.4244791,154.42578 33.4375,154.621094 C33.4505209,154.816407 33.3919277,154.985676 33.2617188,155.128906 C33.1315098,155.272136 32.968751,155.35026 32.7734375,155.363281 C32.578124,155.376302 32.4088549,155.317709 32.265625,155.1875 L25,148.195312 L17.734375,155.1875 C17.5911451,155.317709 17.421876,155.376302 17.2265625,155.363281 C17.031249,155.35026 16.8684902,155.272136 16.7382812,155.128906 C16.6080723,154.985676 16.5494791,154.816407 16.5625,154.621094 C16.5755209,154.42578 16.6536451,154.263021 16.796875,154.132812 L24.0625,147.140625 C24.322918,146.906249 24.6354148,146.789062 25,146.789062 C25.3645852,146.789062 25.677082,146.906249 25.9375,147.140625 L33.203125,154.132812 Z M31.2695312,156.730469 C31.4648447,156.730469 31.6308587,156.798827 31.7675781,156.935547 C31.9042976,157.072266 31.9726562,157.23828 31.9726562,157.433594 L31.9726562,162.84375 C31.9726562,163.234377 31.8359389,163.566405 31.5625,163.839844 C31.2890611,164.113283 30.9570332,164.25 30.5664062,164.25 L19.4335938,164.25 C19.0429668,164.25 18.7109389,164.113283 18.4375,163.839844 C18.1640611,163.566405 18.0273438,163.234377 18.0273438,162.84375 L18.0273438,157.433594 C18.0273438,157.23828 18.0957024,157.072266 18.2324219,156.935547 C18.3691413,156.798827 18.5351553,156.730469 18.7304688,156.730469 C18.9257822,156.730469 19.0917962,156.798827 19.2285156,156.935547 C19.3652351,157.072266 19.4335938,157.23828 19.4335938,157.433594 L19.4335938,162.84375 L22.2265625,162.84375 L22.2265625,158.15625 C22.2265625,157.765623 22.3632799,157.433595 22.6367188,157.160156 C22.9101576,156.886717 23.2421855,156.75 23.6328125,156.75 L26.3671875,156.75 C26.7578145,156.75 27.0898424,156.886717 27.3632812,157.160156 C27.6367201,157.433595 27.7734375,157.765623 27.7734375,158.15625 L27.7734375,162.84375 L30.5664062,162.84375 L30.5664062,157.433594 C30.5664062,157.23828 30.6347649,157.072266 30.7714844,156.935547 C30.9082038,156.798827 31.0742178,156.730469 31.2695312,156.730469 Z M23.6328125,158.15625 L23.6328125,162.84375 L26.3671875,162.84375 L26.3671875,158.15625 L23.6328125,158.15625 Z" id="home---anticon"></path>
        </g>
    </g>
</svg>