<?xml version="1.0" encoding="UTF-8"?>
<svg width="16px" height="19px" viewBox="0 0 16 19" version="1.1" xmlns="http://www.w3.org/2000/svg" xmlns:xlink="http://www.w3.org/1999/xlink">
    <!-- Generator: Sketch 49.1 (51147) - http://www.bohemiancoding.com/sketch -->
    <title>team - anticon</title>
    <desc>Created with Sketch.</desc>
    <defs></defs>
    <g id="MobSite" stroke="none" stroke-width="1" fill="none" fill-rule="evenodd">
        <g id="00_Home---Menu" transform="translate(-17.000000, -390.000000)" fill="#9ECDB5">
            <path d="M31.3867188,399.011719 C32.2591189,399.884119 32.7018229,400.938796 32.7148438,402.175781 L32.7148438,405.398438 C32.7148438,405.880211 32.5390643,406.293618 32.1875,406.638672 C31.8359357,406.983726 31.4192732,407.15625 30.9375,407.15625 L26.09375,407.15625 C25.9505201,407.481772 25.7324233,407.745442 25.4394531,407.947266 C25.1464829,408.14909 24.8242205,408.25 24.4726562,408.25 L19.0820312,408.25 C18.5872371,408.25 18.1673194,408.074221 17.8222656,407.722656 C17.4772118,407.371092 17.3046875,406.954429 17.3046875,406.472656 L17.3046875,403.25 C17.3046875,402.026036 17.7408811,400.977869 18.6132812,400.105469 C19.0039082,399.714842 19.4466121,399.408855 19.9414062,399.1875 C19.3554658,398.874998 18.8802102,398.451826 18.515625,397.917969 C18.0598936,397.253903 17.8320312,396.518233 17.8320312,395.710938 C17.8320312,394.630203 18.216142,393.705733 18.984375,392.9375 C19.752608,392.169267 20.6835883,391.785156 21.7773438,391.785156 C22.9101619,391.785156 23.8671836,392.201819 24.6484375,393.035156 C24.9348973,392.384111 25.3710908,391.843752 25.9570312,391.414062 C26.634118,390.94531 27.3958291,390.710938 28.2421875,390.710938 C29.3229221,390.710938 30.247392,391.091793 31.015625,391.853516 C31.783858,392.615238 32.1679688,393.542963 32.1679688,394.636719 C32.1679688,395.444014 31.9401064,396.179684 31.484375,396.84375 C31.1197898,397.377607 30.6510445,397.794269 30.078125,398.09375 C30.5598982,398.315105 30.9960918,398.621092 31.3867188,399.011719 Z M25.703125,394.636719 C25.703125,395.339847 25.9505184,395.9388 26.4453125,396.433594 C26.9401066,396.928388 27.539059,397.175781 28.2421875,397.175781 C28.945316,397.175781 29.5442684,396.925133 30.0390625,396.423828 C30.5338566,395.922524 30.78125,395.323571 30.78125,394.626953 C30.78125,393.930335 30.5338566,393.334638 30.0390625,392.839844 C29.5442684,392.34505 28.945316,392.097656 28.2421875,392.097656 C27.539059,392.097656 26.9401066,392.34505 26.4453125,392.839844 C25.9505184,393.334638 25.703125,393.93359 25.703125,394.636719 Z M19.9609375,397.507812 C20.4557316,398.002607 21.054684,398.25 21.7578125,398.25 C22.460941,398.25 23.0598934,398.002607 23.5546875,397.507812 C24.0494816,397.013018 24.296875,396.414066 24.296875,395.710938 C24.296875,395.007809 24.0494816,394.408857 23.5546875,393.914062 C23.0598934,393.419268 22.460941,393.171875 21.7578125,393.171875 C21.054684,393.171875 20.4557316,393.419268 19.9609375,393.914062 C19.4661434,394.408857 19.21875,395.007809 19.21875,395.710938 C19.21875,396.414066 19.4661434,397.013018 19.9609375,397.507812 Z M24.84375,406.472656 L24.84375,403.25 C24.84375,402.429683 24.5507842,401.720055 23.9648438,401.121094 L23.9648438,401.101562 L23.9453125,401.082031 C23.3333303,400.48307 22.6041709,400.183594 21.7578125,400.183594 C20.9114541,400.183594 20.1888051,400.48307 19.5898438,401.082031 C18.9908824,401.680993 18.6914062,402.403642 18.6914062,403.25 L18.6914062,406.472656 C18.6914062,406.576823 18.7272132,406.664713 18.7988281,406.736328 C18.8704431,406.807943 18.9583328,406.84375 19.0625,406.84375 L24.453125,406.84375 C24.5572922,406.84375 24.6484371,406.807943 24.7265625,406.736328 C24.8046879,406.664713 24.84375,406.576823 24.84375,406.472656 Z M24.4921875,399.734375 C24.6614592,399.473957 24.8567697,399.233074 25.078125,399.011719 C25.468752,398.621092 25.9114559,398.315105 26.40625,398.09375 C26.015623,397.898437 25.6640641,397.638022 25.3515625,397.3125 C24.9869773,398.132817 24.4010457,398.75781 23.59375,399.1875 C23.9192725,399.33073 24.2187486,399.51302 24.4921875,399.734375 Z M31.3085938,405.398438 L31.3085938,402.175781 C31.3085938,401.329423 31.0091176,400.603519 30.4101562,399.998047 C29.8111949,399.392575 29.0885459,399.089844 28.2421875,399.089844 C27.3958291,399.089844 26.6666697,399.39583 26.0546875,400.007812 C25.8333322,400.229168 25.644532,400.489582 25.4882812,400.789062 C25.9830754,401.531254 26.2304688,402.351558 26.2304688,403.25 L26.2304688,405.769531 L30.9375,405.769531 C31.0416672,405.769531 31.1295569,405.733724 31.2011719,405.662109 C31.2727868,405.590494 31.3085938,405.502605 31.3085938,405.398438 Z" id="team---anticon"></path>
        </g>
    </g>
</svg>