<?xml version="1.0" encoding="UTF-8"?>
<svg width="14px" height="19px" viewBox="0 0 14 19" version="1.1" xmlns="http://www.w3.org/2000/svg" xmlns:xlink="http://www.w3.org/1999/xlink">
    <!-- Generator: Sketch 49.1 (51147) - http://www.bohemiancoding.com/sketch -->
    <title></title>
    <desc>Created with Sketch.</desc>
    <defs></defs>
    <g id="MobSite" stroke="none" stroke-width="1" fill="none" fill-rule="evenodd">
        <g id="00_Home---Menu" transform="translate(-18.000000, -18.000000)" fill="#61634F">
            <g id="navbar">
                <path d="M30.9960938,32.9882812 C31.3346371,33.795577 31.5104166,34.6419227 31.5234375,35.5273438 C31.5234375,35.7226572 31.4550788,35.8886712 31.3183594,36.0253906 C31.1816399,36.1621101 31.015626,36.2304688 30.8203125,36.2304688 C30.624999,36.2304688 30.4589851,36.1621101 30.3222656,36.0253906 C30.1855462,35.8886712 30.1171875,35.7226572 30.1171875,35.5273438 C30.1171875,34.1080658 29.6191456,32.9003956 28.6230469,31.9042969 C27.6269481,30.9081981 26.4225331,30.4101562 25.0097656,30.4101562 C23.5969981,30.4101562 22.3925831,30.9114533 21.3964844,31.9140625 C20.4003856,32.9166717 19.9023438,34.1210867 19.9023438,35.5273438 C19.9023438,35.7226572 19.8339851,35.8886712 19.6972656,36.0253906 C19.5605462,36.1621101 19.3945322,36.2304688 19.1992188,36.2304688 C19.0039053,36.2304688 18.8378913,36.1621101 18.7011719,36.0253906 C18.5644524,35.8886712 18.4960938,35.7226572 18.4960938,35.5273438 C18.4960938,34.6419227 18.6653629,33.795577 19.0039062,32.9882812 C19.3294287,32.2070273 19.7916637,31.5169301 20.390625,30.9179688 C20.9895863,30.3190074 21.6796836,29.8567725 22.4609375,29.53125 C22.7083346,29.4140619 22.9817693,29.3164066 23.28125,29.2382812 C22.4869752,28.9778633 21.7903676,28.5481801 21.1914062,27.9492188 C20.1497344,26.894526 19.6289062,25.6250074 19.6289062,24.140625 C19.6289062,22.6562426 20.1529896,21.3899792 21.2011719,20.3417969 C22.2493542,19.2936146 23.5156176,18.7695312 25,18.7695312 C26.4843824,18.7695312 27.753901,19.2936146 28.8085938,20.3417969 C29.8632865,21.3899792 30.390625,22.6562426 30.390625,24.140625 C30.390625,25.6250074 29.8632865,26.894526 28.8085938,27.9492188 C28.2096324,28.5481801 27.5130248,28.9778633 26.71875,29.2382812 C27.0052098,29.3164066 27.2786445,29.4140619 27.5390625,29.53125 C28.3203164,29.8567725 29.0104137,30.3190074 29.609375,30.9179688 C30.2083363,31.5169301 30.6705713,32.2070273 30.9960938,32.9882812 Z M22.1875,26.953125 C22.9687539,27.7343789 23.9062445,28.125 25,28.125 C26.0937555,28.125 27.0279909,27.7343789 27.8027344,26.953125 C28.5774778,26.1718711 28.9648438,25.2343805 28.9648438,24.140625 C28.9648438,23.0468695 28.5774778,22.1126341 27.8027344,21.3378906 C27.0279909,20.5631472 26.0937555,20.1757812 25,20.1757812 C23.9062445,20.1757812 22.9720091,20.5631472 22.1972656,21.3378906 C21.4225222,22.1126341 21.0351562,23.0468695 21.0351562,24.140625 C21.0351562,25.2343805 21.419267,26.1718711 22.1875,26.953125 Z" id=""></path>
            </g>
        </g>
    </g>
</svg>