<?xml version="1.0" encoding="UTF-8"?>
<svg width="10px" height="29px" viewBox="0 0 10 29" version="1.1" xmlns="http://www.w3.org/2000/svg" xmlns:xlink="http://www.w3.org/1999/xlink">
    <!-- Generator: Sketch 49 (51002) - http://www.bohemiancoding.com/sketch -->
    <title></title>
    <desc>Created with Sketch.</desc>
    <defs></defs>
    <g id="MobSite" stroke="none" stroke-width="1" fill="none" fill-rule="evenodd">
        <g id="01_Detail" transform="translate(-21.000000, -1872.000000)" fill="#9ECDB5">
            <g id="artikel-sebelumnya" transform="translate(15.000000, 1856.000000)">
                <path d="M15.1069547,16 C15.1894777,16 15.266105,16.0229962 15.336839,16.0689894 C15.407573,16.1149826 15.4724115,16.1839713 15.5313565,16.2759577 C15.6492464,16.4599304 15.7081905,16.6852935 15.7081905,16.9520539 C15.7081905,17.2188143 15.6492464,17.4441775 15.5313565,17.6281502 L7.46772279,30.2118196 L15.425256,42.6299143 C15.543146,42.813887 15.6020901,43.0346509 15.6020901,43.2922127 C15.6020901,43.5497745 15.543146,43.7705384 15.425256,43.9545111 C15.307366,44.1384838 15.162953,44.2304688 14.9920125,44.2304688 C14.8210721,44.2304688 14.676659,44.1384838 14.5587691,43.9545111 L6.17683407,30.8741179 C6.0589441,30.6901452 6,30.4693813 6,30.2118196 C6,29.9542578 6.0589441,29.7334939 6.17683407,29.5495212 L14.6825529,16.2759577 C14.7414979,16.1839713 14.8092836,16.1149826 14.8859121,16.0689894 C14.9625406,16.0229962 15.0362207,16 15.1069547,16 Z" id=""></path>
            </g>
        </g>
    </g>
</svg>