<?xml version="1.0" encoding="UTF-8"?>
<svg width="18px" height="19px" viewBox="0 0 18 19" version="1.1" xmlns="http://www.w3.org/2000/svg" xmlns:xlink="http://www.w3.org/1999/xlink">
    <!-- Generator: Sketch 49.1 (51147) - http://www.bohemiancoding.com/sketch -->
    <title>setting - anticon</title>
    <desc>Created with Sketch.</desc>
    <defs></defs>
    <g id="MobSite" stroke="none" stroke-width="1" fill="none" fill-rule="evenodd">
        <g id="00_Home---Menu-Profile" transform="translate(-16.000000, -191.000000)" fill="#9ECDB5">
            <g id="User-Menu" transform="translate(0.000000, 55.000000)">
                <path d="M33.7890625,144.09375 C33.8671879,144.601565 33.90625,145.07031 33.90625,145.5 C33.90625,145.92969 33.8671879,146.398435 33.7890625,146.90625 L33.7109375,147.375 L32.2851562,147.84375 C32.1549473,148.234377 31.9986988,148.611977 31.8164062,148.976562 L32.4804688,150.324219 L32.2070312,150.714844 C31.9075506,151.131512 31.6015641,151.489582 31.2890625,151.789062 C30.9895818,152.101564 30.6315125,152.407551 30.2148438,152.707031 L29.8242188,153 L28.4765625,152.316406 C28.1119773,152.498699 27.7408873,152.654947 27.3632812,152.785156 L26.875,154.210938 L26.40625,154.289062 C25.898435,154.367188 25.4296896,154.40625 25,154.40625 C24.5703104,154.40625 24.101565,154.367188 23.59375,154.289062 L23.125,154.210938 L22.6367188,152.785156 C22.2591127,152.654947 21.8880227,152.498699 21.5234375,152.316406 L20.1757812,152.980469 L19.7851562,152.707031 C19.3684875,152.39453 19.0104182,152.088543 18.7109375,151.789062 C18.385415,151.46354 18.0794285,151.105471 17.7929688,150.714844 L17.5195312,150.324219 L18.1835938,148.976562 C18.0013012,148.624998 17.8450527,148.253908 17.7148438,147.863281 L16.2890625,147.375 L16.2109375,146.90625 C16.1328121,146.398435 16.09375,145.92969 16.09375,145.5 C16.09375,145.07031 16.1328121,144.601565 16.2109375,144.09375 L16.2890625,143.625 L17.7148438,143.136719 C17.8450527,142.759113 18.0013012,142.388023 18.1835938,142.023438 L17.5195312,140.675781 L17.7929688,140.285156 C18.3528674,139.516923 19.0169232,138.852867 19.7851562,138.292969 L20.1757812,138 L21.5234375,138.683594 C21.8750018,138.501301 22.2460918,138.345053 22.6367188,138.214844 L23.125,136.789062 L23.59375,136.710938 C24.101565,136.632812 24.5703104,136.59375 25,136.59375 C25.4296896,136.59375 25.898435,136.632812 26.40625,136.710938 L26.875,136.789062 L27.34375,138.214844 C27.734377,138.345053 28.1119773,138.501301 28.4765625,138.683594 L29.8242188,138 L30.2148438,138.273438 C30.9830768,138.833336 31.6471326,139.503902 32.2070312,140.285156 L32.4804688,140.65625 L31.8164062,142.003906 C31.9986988,142.368491 32.1549473,142.746092 32.2851562,143.136719 L33.7109375,143.625 L33.7890625,144.09375 Z M32.5,145.480469 C32.5130209,145.233072 32.5000002,144.966147 32.4609375,144.679688 L31.7578125,144.445312 L31.1523438,144.25 L30.9765625,143.625 C30.8593744,143.273436 30.7096363,142.928387 30.5273438,142.589844 L30.234375,142.023438 L30.859375,140.8125 C30.5078107,140.38281 30.1171896,139.992189 29.6875,139.640625 L28.4765625,140.265625 L27.9101562,139.953125 C27.5716129,139.783853 27.2200539,139.640626 26.8554688,139.523438 L26.25,139.347656 L25.8203125,138.039062 C25.5338527,138.013021 25.260418,138 25,138 C24.7526029,138 24.4791682,138.013021 24.1796875,138.039062 L23.9453125,138.742188 L23.75,139.347656 L23.1445312,139.542969 C22.7799461,139.647136 22.4348975,139.790364 22.109375,139.972656 L21.5234375,140.265625 L20.3125,139.660156 C19.8828104,139.9987 19.4986996,140.38281 19.1601562,140.8125 L19.4726562,141.457031 L19.765625,142.023438 L19.4726562,142.609375 C19.2903637,142.947918 19.1471359,143.292967 19.0429688,143.644531 L18.8476562,144.25 L17.5585938,144.679688 C17.5195311,144.979168 17.5,145.252603 17.5,145.5 C17.5,145.773439 17.5195311,146.046874 17.5585938,146.320312 L18.8476562,146.75 L19.0429688,147.375 C19.1471359,147.713543 19.2903637,148.058592 19.4726562,148.410156 L19.765625,148.976562 L19.1601562,150.1875 C19.3294279,150.408855 19.5117178,150.610676 19.7070312,150.792969 C19.8893238,150.988282 20.0911447,151.170572 20.3125,151.339844 L20.9570312,151.027344 L21.5429688,150.734375 L22.109375,151.027344 C22.4348975,151.196615 22.7799461,151.339843 23.1445312,151.457031 L23.75,151.652344 L23.9648438,152.257812 L24.1796875,152.941406 C24.4791682,152.980469 24.7526029,153 25,153 C25.2734389,153 25.5468736,152.980469 25.8203125,152.941406 L26.0546875,152.257812 L26.25,151.652344 L26.8554688,151.457031 C27.2200539,151.339843 27.5716129,151.196615 27.9101562,151.027344 L28.4765625,150.734375 L29.6875,151.339844 C29.9218762,151.170572 30.1302074,150.994793 30.3125,150.8125 L30.3125,150.792969 C30.4947926,150.610676 30.6770824,150.408855 30.859375,150.1875 L30.234375,148.957031 L30.546875,148.390625 C30.7161467,148.065103 30.8528641,147.726564 30.9570312,147.375 L31.1523438,146.75 L31.7578125,146.535156 L32.4609375,146.320312 C32.4869793,146.020832 32.5,145.747397 32.5,145.5 L32.5,145.480469 Z M27.4023437,143.097656 C28.0664096,143.761722 28.3984375,144.562495 28.3984375,145.5 C28.3984375,146.437505 28.0664096,147.238278 27.4023437,147.902344 C26.7382779,148.56641 25.9375047,148.898438 25,148.898438 C24.0624953,148.898438 23.2617221,148.56641 22.5976562,147.902344 C21.9335904,147.238278 21.6015625,146.437505 21.6015625,145.5 C21.6015625,144.562495 21.9335904,143.761722 22.5976562,143.097656 C23.2617221,142.43359 24.0624953,142.101562 25,142.101562 C25.9375047,142.101562 26.7382779,142.43359 27.4023437,143.097656 Z M26.9921875,145.5 C26.9921875,144.953122 26.8001321,144.484377 26.4160156,144.09375 C26.0318991,143.703123 25.5631538,143.507812 25.0097656,143.507812 C24.4563774,143.507812 23.984377,143.703123 23.59375,144.09375 C23.203123,144.484377 23.0078125,144.953122 23.0078125,145.5 C23.0078125,146.046878 23.203123,146.515623 23.59375,146.90625 C23.984377,147.296877 24.4531223,147.492188 25,147.492188 C25.5468777,147.492188 26.015623,147.296877 26.40625,146.90625 C26.796877,146.515623 26.9921875,146.046878 26.9921875,145.5 Z" id="setting---anticon"></path>
            </g>
        </g>
    </g>
</svg>