<?xml version="1.0" encoding="UTF-8"?>
<svg width="20px" height="16px" viewBox="0 0 20 16" version="1.1" xmlns="http://www.w3.org/2000/svg" xmlns:xlink="http://www.w3.org/1999/xlink">
    <!-- Generator: Sketch 49.1 (51147) - http://www.bohemiancoding.com/sketch -->
    <title></title>
    <desc>Created with Sketch.</desc>
    <defs></defs>
    <g id="Symbols" stroke="none" stroke-width="1" fill="none" fill-rule="evenodd">
        <g id="menu-bar-anticon" transform="translate(0.000000, -2.000000)" fill="#61634F">
            <path d="M0.52734375,4.0390625 C0.449218359,3.94791621 0.390625195,3.85351611 0.3515625,3.75585938 C0.312499805,3.65820264 0.29296875,3.54427148 0.29296875,3.4140625 C0.29296875,3.29687441 0.312499805,3.18619844 0.3515625,3.08203125 C0.390625195,2.97786406 0.449218359,2.88671914 0.52734375,2.80859375 C0.605469141,2.73046836 0.696614062,2.6718752 0.80078125,2.6328125 C0.904948437,2.5937498 1.01562441,2.57421875 1.1328125,2.57421875 L18.9648437,2.57421875 C19.0820318,2.57421875 19.1927078,2.5937498 19.296875,2.6328125 C19.4010422,2.6718752 19.4921871,2.73046836 19.5703125,2.80859375 C19.6484379,2.88671914 19.7070311,2.97786406 19.7460937,3.08203125 C19.7851564,3.18619844 19.8046875,3.29687441 19.8046875,3.4140625 C19.8046875,3.54427148 19.7851564,3.65820264 19.7460937,3.75585938 C19.7070311,3.85351611 19.6484379,3.94791621 19.5703125,4.0390625 C19.4921871,4.11718789 19.4010422,4.17578105 19.296875,4.21484375 C19.1927078,4.25390645 19.0820318,4.2734375 18.9648437,4.2734375 L1.1328125,4.2734375 C1.01562441,4.2734375 0.904948437,4.25390645 0.80078125,4.21484375 C0.696614062,4.17578105 0.605469141,4.11718789 0.52734375,4.0390625 Z M19.5703125,9.60546875 C19.6484379,9.68359414 19.7070311,9.77473906 19.7460937,9.87890625 C19.7851564,9.98307344 19.8046875,10.0937494 19.8046875,10.2109375 C19.8046875,10.3281256 19.7851564,10.4388016 19.7460937,10.5429688 C19.7070311,10.6471359 19.6484379,10.7382809 19.5703125,10.8164062 C19.4921871,10.8945316 19.4010422,10.9531248 19.296875,10.9921875 C19.1927078,11.0312502 19.0820318,11.0507812 18.9648437,11.0507812 L1.1328125,11.0507812 C1.01562441,11.0507812 0.904948437,11.0312502 0.80078125,10.9921875 C0.696614062,10.9531248 0.605469141,10.8945316 0.52734375,10.8164062 C0.449218359,10.7382809 0.390625195,10.6471359 0.3515625,10.5429688 C0.312499805,10.4388016 0.29296875,10.3281256 0.29296875,10.2109375 C0.29296875,10.0937494 0.312499805,9.98307344 0.3515625,9.87890625 C0.390625195,9.77473906 0.449218359,9.68359414 0.52734375,9.60546875 C0.605469141,9.52734336 0.696614062,9.4687502 0.80078125,9.4296875 C0.904948437,9.3906248 1.01562441,9.37109375 1.1328125,9.37109375 L18.9648437,9.37109375 C19.0820318,9.37109375 19.1927078,9.3906248 19.296875,9.4296875 C19.4010422,9.4687502 19.4921871,9.52734336 19.5703125,9.60546875 Z M19.5703125,16.3828125 C19.6484379,16.4609379 19.7070311,16.5520828 19.7460937,16.65625 C19.7851564,16.7604172 19.8046875,16.8710932 19.8046875,16.9882812 C19.8046875,17.1184902 19.7851564,17.2324214 19.7460937,17.3300781 C19.7070311,17.4277349 19.6484379,17.522135 19.5703125,17.6132812 C19.4921871,17.6914066 19.4010422,17.7499998 19.296875,17.7890625 C19.1927078,17.8281252 19.0820318,17.8476562 18.9648437,17.8476562 L1.1328125,17.8476562 C1.01562441,17.8476562 0.904948437,17.8281252 0.80078125,17.7890625 C0.696614062,17.7499998 0.605469141,17.6914066 0.52734375,17.6132812 C0.449218359,17.522135 0.390625195,17.4277349 0.3515625,17.3300781 C0.312499805,17.2324214 0.29296875,17.1184902 0.29296875,16.9882812 C0.29296875,16.8710932 0.312499805,16.7604172 0.3515625,16.65625 C0.390625195,16.5520828 0.449218359,16.4609379 0.52734375,16.3828125 C0.605469141,16.3046871 0.696614062,16.2460939 0.80078125,16.2070312 C0.904948437,16.1679686 1.01562441,16.1484375 1.1328125,16.1484375 L18.9648437,16.1484375 C19.0820318,16.1484375 19.1927078,16.1679686 19.296875,16.2070312 C19.4010422,16.2460939 19.4921871,16.3046871 19.5703125,16.3828125 Z" id=""></path>
        </g>
    </g>
</svg>