<?xml version="1.0" encoding="UTF-8"?>
<svg width="18px" height="19px" viewBox="0 0 18 19" version="1.1" xmlns="http://www.w3.org/2000/svg" xmlns:xlink="http://www.w3.org/1999/xlink">
    <!-- Generator: Sketch 49.1 (51147) - http://www.bohemiancoding.com/sketch -->
    <title>shop - anticon</title>
    <desc>Created with Sketch.</desc>
    <defs></defs>
    <g id="MobSite" stroke="none" stroke-width="1" fill="none" fill-rule="evenodd">
        <g id="00_Home---Menu" transform="translate(-16.000000, -349.000000)" fill="#9ECDB5">
            <path d="M32.2851562,360.511719 C32.4283861,360.641928 32.5,360.804687 32.5,361 L32.5,365.84375 C32.5,366.234377 32.3632826,366.566405 32.0898438,366.839844 C31.8164049,367.113283 31.484377,367.25 31.09375,367.25 L18.90625,367.25 C18.515623,367.25 18.1835951,367.113283 17.9101562,366.839844 C17.6367174,366.566405 17.5,366.234377 17.5,365.84375 L17.5,361 C17.5,360.804687 17.5683587,360.638673 17.7050781,360.501953 C17.8417976,360.365234 18.0078115,360.296875 18.203125,360.296875 C18.3984385,360.296875 18.5644524,360.365234 18.7011719,360.501953 C18.8378913,360.638673 18.90625,360.804687 18.90625,361 L18.90625,365.84375 L31.09375,365.84375 L31.09375,361 C31.09375,360.804687 31.1621087,360.638673 31.2988281,360.501953 C31.4355476,360.365234 31.6015615,360.296875 31.796875,360.296875 C31.9921885,360.296875 32.1549473,360.368489 32.2851562,360.511719 Z M32.34375,349.75 C32.734377,349.75 33.0664049,349.886717 33.3398438,350.160156 C33.6132826,350.433595 33.75,350.765623 33.75,351.15625 L33.75,355.140625 C33.75,356.065109 33.4179721,356.859372 32.7539062,357.523438 C32.0898404,358.187503 31.2890672,358.519531 30.3515625,358.519531 C29.8177057,358.519531 29.3196638,358.402345 28.8574219,358.167969 C28.39518,357.933593 28.0078141,357.614585 27.6953125,357.210938 C27.36979,357.614585 26.9759138,357.933593 26.5136719,358.167969 C26.05143,358.402345 25.5468777,358.519531 25,358.519531 C24.4661432,358.519531 23.9648461,358.402345 23.4960938,358.167969 C23.0273414,357.933593 22.6367203,357.608075 22.3242188,357.191406 C22.0117172,357.608075 21.6210961,357.933593 21.1523438,358.167969 C20.6835914,358.402345 20.1822943,358.519531 19.6484375,358.519531 C18.7109328,358.519531 17.9101596,358.187503 17.2460938,357.523438 C16.5820279,356.859372 16.25,356.065109 16.25,355.140625 L16.25,351.15625 C16.25,350.765623 16.3867174,350.433595 16.6601562,350.160156 C16.9335951,349.886717 17.265623,349.75 17.65625,349.75 L32.34375,349.75 Z M21.6210938,351.15625 L17.65625,351.15625 L17.65625,355.140625 C17.65625,355.687503 17.8483054,356.152993 18.2324219,356.537109 C18.6165384,356.921226 19.0852837,357.113281 19.6386719,357.113281 C20.1920601,357.113281 20.6608054,356.921226 21.0449219,356.537109 C21.4290384,356.152993 21.6210938,355.687503 21.6210938,355.140625 L21.6210938,351.15625 Z M25,357.113281 C25.507815,357.113281 25.9505189,356.944012 26.328125,356.605469 C26.7057311,356.266925 26.9205727,355.850263 26.9726562,355.355469 L26.9726562,351.15625 L23.0273438,351.15625 L23.0273438,355.140625 C23.0273438,355.687503 23.2193991,356.152993 23.6035156,356.537109 C23.9876321,356.921226 24.4531223,357.113281 25,357.113281 Z M32.34375,355.140625 L32.34375,351.15625 L28.3789062,351.15625 L28.3789062,355.140625 C28.3789062,355.687503 28.5709616,356.152993 28.9550781,356.537109 C29.3391946,356.921226 29.8079399,357.113281 30.3613281,357.113281 C30.9147163,357.113281 31.3834616,356.921226 31.7675781,356.537109 C32.1516946,356.152993 32.34375,355.687503 32.34375,355.140625 Z" id="shop---anticon"></path>
        </g>
    </g>
</svg>