<?xml version="1.0" encoding="UTF-8"?>
<svg width="18px" height="16px" viewBox="0 0 18 16" version="1.1" xmlns="http://www.w3.org/2000/svg" xmlns:xlink="http://www.w3.org/1999/xlink">
    <!-- Generator: Sketch 49.1 (51147) - http://www.bohemiancoding.com/sketch -->
    <title>mail - anticon</title>
    <desc>Created with Sketch.</desc>
    <defs></defs>
    <g id="MobSite" stroke="none" stroke-width="1" fill="none" fill-rule="evenodd">
        <g id="00_Home---Menu-Profile" transform="translate(-16.000000, -113.000000)" fill="#9ECDB5">
            <g id="User-Menu" transform="translate(0.000000, 55.000000)">
                <path d="M32.3046875,58 C32.6953145,58 33.0273424,58.1367174 33.3007812,58.4101562 C33.5742201,58.6835951 33.7109375,59.015623 33.7109375,59.40625 L33.7109375,71.6328125 C33.7109375,72.0234395 33.5742201,72.3554674 33.3007812,72.6289062 C33.0273424,72.9023451 32.6953145,73.0390625 32.3046875,73.0390625 L17.5976562,73.0390625 C17.2070293,73.0390625 16.8750014,72.9023451 16.6015625,72.6289062 C16.3281236,72.3554674 16.1914062,72.0234395 16.1914062,71.6328125 L16.1914062,59.40625 C16.1914062,59.015623 16.3281236,58.6835951 16.6015625,58.4101562 C16.8750014,58.1367174 17.2070293,58 17.5976562,58 L32.3046875,58 Z M30.8007812,59.40625 L19.1015625,59.40625 L24.453125,63.8203125 L24.4921875,63.8398438 C24.6223965,63.9830736 24.7851553,64.0546875 24.9804688,64.0546875 L25,64.0546875 C25.1953135,64.0546875 25.3645826,63.9830736 25.5078125,63.8398438 L25.5273438,63.8007812 L25.5664062,63.78125 L30.8007812,59.40625 Z M32.3046875,71.6328125 L32.3046875,59.9726562 L26.484375,64.8359375 C26.0807271,65.2526062 25.5859404,65.4609375 25,65.4609375 C24.4140596,65.4609375 23.9192729,65.2591166 23.515625,64.8554688 L17.5976562,59.9726562 L17.5976562,71.6328125 L32.3046875,71.6328125 Z" id="mail---anticon"></path>
            </g>
        </g>
    </g>
</svg>