<?xml version="1.0" encoding="UTF-8"?>
<svg width="18px" height="19px" viewBox="0 0 18 19" version="1.1" xmlns="http://www.w3.org/2000/svg" xmlns:xlink="http://www.w3.org/1999/xlink">
    <!-- Generator: Sketch 49.1 (51147) - http://www.bohemiancoding.com/sketch -->
    <title>search - anticon</title>
    <desc>Created with Sketch.</desc>
    <defs></defs>
    <g id="Symbols" stroke="none" stroke-width="1" fill="none" fill-rule="evenodd">
        <g id="search---anticon" transform="translate(-1.000000, -1.000000)" fill="#4A4A4A">
            <path d="M18.5546875,18.0390625 C18.6848965,18.1822924 18.75,18.3515615 18.75,18.546875 C18.75,18.7421885 18.6848965,18.9114576 18.5546875,19.0546875 C18.4114576,19.1848965 18.2421885,19.25 18.046875,19.25 C17.8515615,19.25 17.6888027,19.1848965 17.5585938,19.0546875 L13.5351562,15.03125 C12.1419201,16.1770891 10.546884,16.75 8.75,16.75 C6.67967715,16.75 4.9121167,16.0175854 3.44726562,14.5527344 C1.98241455,13.0878833 1.25,11.3203229 1.25,9.25 C1.25,7.17967715 1.98241455,5.4121167 3.44726562,3.94726562 C4.9121167,2.48241455 6.67967715,1.75 8.75,1.75 C10.8203229,1.75 12.5878833,2.48241455 14.0527344,3.94726562 C15.5175854,5.4121167 16.25,7.17967715 16.25,9.25 C16.25,11.046884 15.6770891,12.6419201 14.53125,14.0351562 L18.5546875,18.0390625 Z M11.1132812,14.875 C11.8424516,14.5624984 12.4902315,14.1230497 13.0566406,13.5566406 C13.6230497,12.9902315 14.0624984,12.3424516 14.375,11.6132812 C14.6875016,10.87109 14.84375,10.0833375 14.84375,9.25 C14.84375,8.4166625 14.6875016,7.62890996 14.375,6.88671875 C14.0624984,6.15754844 13.6230497,5.50976846 13.0566406,4.94335938 C12.4902315,4.37695029 11.8424516,3.93750156 11.1132812,3.625 C10.37109,3.31249844 9.5833375,3.15625 8.75,3.15625 C7.9166625,3.15625 7.12890996,3.31249844 6.38671875,3.625 C5.65754844,3.93750156 5.00976846,4.37695029 4.44335938,4.94335938 C3.87695029,5.50976846 3.44401191,6.15754844 3.14453125,6.88671875 C2.81900879,7.62890996 2.65625,8.4166625 2.65625,9.25 C2.65625,10.0833375 2.81900879,10.87109 3.14453125,11.6132812 C3.44401191,12.3424516 3.87695029,12.9902315 4.44335938,13.5566406 C5.00976846,14.1230497 5.65754844,14.5624984 6.38671875,14.875 C7.12890996,15.1875016 7.9166625,15.34375 8.75,15.34375 C9.5833375,15.34375 10.37109,15.1875016 11.1132812,14.875 Z"></path>
        </g>
    </g>
</svg>