<?xml version="1.0" encoding="UTF-8"?>
<svg width="21px" height="17px" viewBox="0 0 21 17" version="1.1" xmlns="http://www.w3.org/2000/svg" xmlns:xlink="http://www.w3.org/1999/xlink">
    <!-- Generator: Sketch 49.1 (51147) - http://www.bohemiancoding.com/sketch -->
    <title>folder - anticon</title>
    <desc>Created with Sketch.</desc>
    <defs></defs>
    <g id="MobSite" stroke="none" stroke-width="1" fill="none" fill-rule="evenodd">
        <g id="00_Home---Menu" transform="translate(-15.000000, -226.000000)" fill="#9ECDB5">
            <path d="M33.6132812,229.25 C34.0039082,229.25 34.3359361,229.386717 34.609375,229.660156 C34.8828139,229.933595 35.0195312,230.265623 35.0195312,230.65625 L35.0195312,241.59375 C35.0195312,241.984377 34.8828139,242.316405 34.609375,242.589844 C34.3359361,242.863283 34.0039082,243 33.6132812,243 L16.4257812,243 C16.0351543,243 15.7031264,242.863283 15.4296875,242.589844 C15.1562486,242.316405 15.0195312,241.984377 15.0195312,241.59375 L15.0195312,228.15625 C15.0195312,227.765623 15.1562486,227.433595 15.4296875,227.160156 C15.7031264,226.886717 16.0351543,226.75 16.4257812,226.75 L22.734375,226.75 C23.0468766,226.75 23.3268217,226.841145 23.5742188,227.023438 C23.8216158,227.20573 23.990885,227.440103 24.0820312,227.726562 L24.5703125,229.25 L33.6132812,229.25 Z M16.4257812,228.15625 L16.4257812,229.25 L23.0859375,229.25 L22.734375,228.15625 L16.4257812,228.15625 Z M33.6132812,241.59375 L33.6132812,230.65625 L16.4257812,230.65625 L16.4257812,241.59375 L33.6132812,241.59375 Z" id="folder---anticon"></path>
        </g>
    </g>
</svg>