<?xml version="1.0" encoding="UTF-8"?>
<svg width="18px" height="19px" viewBox="0 0 18 19" version="1.1" xmlns="http://www.w3.org/2000/svg" xmlns:xlink="http://www.w3.org/1999/xlink">
    <!-- Generator: Sketch 49.1 (51147) - http://www.bohemiancoding.com/sketch -->
    <title>calendar - anticon</title>
    <desc>Created with Sketch.</desc>
    <defs></defs>
    <g id="MobSite" stroke="none" stroke-width="1" fill="none" fill-rule="evenodd">
        <g id="00_Home---Menu" transform="translate(-16.000000, -267.000000)" fill="#9ECDB5">
            <path d="M32.34375,269 C32.734377,269 33.0664049,269.136717 33.3398438,269.410156 C33.6132826,269.683595 33.75,270.015623 33.75,270.40625 L33.75,283.84375 C33.75,284.234377 33.6132826,284.566405 33.3398438,284.839844 C33.0664049,285.113283 32.734377,285.25 32.34375,285.25 L17.65625,285.25 C17.265623,285.25 16.9335951,285.113283 16.6601562,284.839844 C16.3867174,284.566405 16.25,284.234377 16.25,283.84375 L16.25,270.40625 C16.25,270.015623 16.3867174,269.683595 16.6601562,269.410156 C16.9335951,269.136717 17.265623,269 17.65625,269 L20,269 L20,268.453125 C20,268.257812 20.0683587,268.091798 20.2050781,267.955078 C20.3417976,267.818359 20.5078115,267.75 20.703125,267.75 C20.8984385,267.75 21.0644524,267.818359 21.2011719,267.955078 C21.3378913,268.091798 21.40625,268.257812 21.40625,268.453125 L21.40625,269 L28.59375,269 L28.59375,268.453125 C28.59375,268.257812 28.6621087,268.091798 28.7988281,267.955078 C28.9355476,267.818359 29.1015615,267.75 29.296875,267.75 C29.4921885,267.75 29.6582024,267.818359 29.7949219,267.955078 C29.9316413,268.091798 30,268.257812 30,268.453125 L30,269 L32.34375,269 Z M17.65625,270.40625 L17.65625,272.59375 L32.34375,272.59375 L32.34375,270.40625 L30,270.40625 L30,270.796875 C30,270.992188 29.9316413,271.158202 29.7949219,271.294922 C29.6582024,271.431641 29.4921885,271.5 29.296875,271.5 C29.1015615,271.5 28.9355476,271.431641 28.7988281,271.294922 C28.6621087,271.158202 28.59375,270.992188 28.59375,270.796875 L28.59375,270.40625 L21.40625,270.40625 L21.40625,270.796875 C21.40625,270.992188 21.3378913,271.158202 21.2011719,271.294922 C21.0644524,271.431641 20.8984385,271.5 20.703125,271.5 C20.5078115,271.5 20.3417976,271.431641 20.2050781,271.294922 C20.0683587,271.158202 20,270.992188 20,270.796875 L20,270.40625 L17.65625,270.40625 Z M32.34375,283.84375 L32.34375,274 L17.65625,274 L17.65625,283.84375 L32.34375,283.84375 Z M20.625,276.5 L21.875,276.5 C22.0442717,276.5 22.1907546,276.561848 22.3144531,276.685547 C22.4381517,276.809245 22.5,276.955728 22.5,277.125 C22.5,277.294272 22.4381517,277.440755 22.3144531,277.564453 C22.1907546,277.688152 22.0442717,277.75 21.875,277.75 L20.625,277.75 C20.4557283,277.75 20.3092454,277.688152 20.1855469,277.564453 C20.0618483,277.440755 20,277.294272 20,277.125 C20,276.955728 20.0618483,276.809245 20.1855469,276.685547 C20.3092454,276.561848 20.4557283,276.5 20.625,276.5 Z M24.375,276.5 L25.625,276.5 C25.7942717,276.5 25.9407546,276.561848 26.0644531,276.685547 C26.1881517,276.809245 26.25,276.955728 26.25,277.125 C26.25,277.294272 26.1881517,277.440755 26.0644531,277.564453 C25.9407546,277.688152 25.7942717,277.75 25.625,277.75 L24.375,277.75 C24.2057283,277.75 24.0592454,277.688152 23.9355469,277.564453 C23.8118483,277.440755 23.75,277.294272 23.75,277.125 C23.75,276.955728 23.8118483,276.809245 23.9355469,276.685547 C24.0592454,276.561848 24.2057283,276.5 24.375,276.5 Z M28.125,276.5 L29.375,276.5 C29.5442717,276.5 29.6907546,276.561848 29.8144531,276.685547 C29.9381517,276.809245 30,276.955728 30,277.125 C30,277.294272 29.9381517,277.440755 29.8144531,277.564453 C29.6907546,277.688152 29.5442717,277.75 29.375,277.75 L28.125,277.75 C27.9557283,277.75 27.8092454,277.688152 27.6855469,277.564453 C27.5618483,277.440755 27.5,277.294272 27.5,277.125 C27.5,276.955728 27.5618483,276.809245 27.6855469,276.685547 C27.8092454,276.561848 27.9557283,276.5 28.125,276.5 Z M20.625,280.289062 L21.875,280.289062 C22.0442717,280.289062 22.1907546,280.350911 22.3144531,280.474609 C22.4381517,280.598308 22.5,280.744791 22.5,280.914062 C22.5,281.083334 22.4381517,281.229817 22.3144531,281.353516 C22.1907546,281.477214 22.0442717,281.539062 21.875,281.539062 L20.625,281.539062 C20.4557283,281.539062 20.3092454,281.477214 20.1855469,281.353516 C20.0618483,281.229817 20,281.083334 20,280.914062 C20,280.744791 20.0618483,280.598308 20.1855469,280.474609 C20.3092454,280.350911 20.4557283,280.289062 20.625,280.289062 Z M24.375,280.289062 L25.625,280.289062 C25.7942717,280.289062 25.9407546,280.350911 26.0644531,280.474609 C26.1881517,280.598308 26.25,280.744791 26.25,280.914062 C26.25,281.083334 26.1881517,281.229817 26.0644531,281.353516 C25.9407546,281.477214 25.7942717,281.539062 25.625,281.539062 L24.375,281.539062 C24.2057283,281.539062 24.0592454,281.477214 23.9355469,281.353516 C23.8118483,281.229817 23.75,281.083334 23.75,280.914062 C23.75,280.744791 23.8118483,280.598308 23.9355469,280.474609 C24.0592454,280.350911 24.2057283,280.289062 24.375,280.289062 Z" id="calendar---anticon"></path>
        </g>
    </g>
</svg>