<?xml version="1.0" encoding="UTF-8"?>
<svg width="8px" height="15px" viewBox="0 0 8 15" version="1.1" xmlns="http://www.w3.org/2000/svg" xmlns:xlink="http://www.w3.org/1999/xlink">
    <!-- Generator: Sketch 49.1 (51147) - http://www.bohemiancoding.com/sketch -->
    <title>Arrow-right - simple-line-icons</title>
    <desc>Created with Sketch.</desc>
    <defs></defs>
    <g id="MobSite" stroke="none" stroke-width="1" fill="none" fill-rule="evenodd">
        <g id="00_Home---Menu-Loggedin" transform="translate(-334.000000, -109.000000)" fill="#61634F">
            <path d="M334.71875,123.861328 C334.654948,123.861328 334.593425,123.849935 334.53418,123.827148 C334.474935,123.804362 334.422526,123.770183 334.376953,123.724609 C334.285807,123.633463 334.240234,123.524089 334.240234,123.396484 C334.240234,123.26888 334.285807,123.159506 334.376953,123.068359 L340.625,116.820312 L334.472656,110.681641 C334.38151,110.590494 334.335938,110.478842 334.335938,110.34668 C334.335938,110.214518 334.38151,110.102865 334.472656,110.011719 C334.563803,109.920572 334.675455,109.875 334.807617,109.875 C334.939779,109.875 335.051432,109.920572 335.142578,110.011719 L341.609375,116.492188 C341.700521,116.583334 341.746094,116.692708 341.746094,116.820312 C341.746094,116.947917 341.700521,117.057291 341.609375,117.148438 L335.046875,123.724609 C335.001302,123.770183 334.948894,123.804362 334.889648,123.827148 C334.830403,123.849935 334.773438,123.861328 334.71875,123.861328 Z" id="Arrow-right---simple-line-icons"></path>
        </g>
    </g>
</svg>