<?xml version="1.0" encoding="UTF-8"?>
<svg width="18px" height="19px" viewBox="0 0 18 19" version="1.1" xmlns="http://www.w3.org/2000/svg" xmlns:xlink="http://www.w3.org/1999/xlink">
    <!-- Generator: Sketch 49.1 (51147) - http://www.bohemiancoding.com/sketch -->
    <title>gift - anticon</title>
    <desc>Created with Sketch.</desc>
    <defs></defs>
    <g id="MobSite" stroke="none" stroke-width="1" fill="none" fill-rule="evenodd">
        <g id="00_Home---Menu" transform="translate(-16.000000, -308.000000)" fill="#9ECDB5">
            <path d="M32.34375,313.75 C32.734377,313.75 33.0664049,313.886717 33.3398438,314.160156 C33.6132826,314.433595 33.75,314.765623 33.75,315.15625 L33.75,317.34375 C33.75,317.734377 33.6132826,318.066405 33.3398438,318.339844 C33.0664049,318.613283 32.734377,318.75 32.34375,318.75 L32.5,318.75 L32.5,324.84375 C32.5,325.234377 32.3632826,325.566405 32.0898438,325.839844 C31.8164049,326.113283 31.484377,326.25 31.09375,326.25 L18.90625,326.25 C18.515623,326.25 18.1835951,326.113283 17.9101562,325.839844 C17.6367174,325.566405 17.5,325.234377 17.5,324.84375 L17.5,318.75 L17.65625,318.75 C17.265623,318.75 16.9335951,318.613283 16.6601562,318.339844 C16.3867174,318.066405 16.25,317.734377 16.25,317.34375 L16.25,315.15625 C16.25,314.765623 16.3867174,314.433595 16.6601562,314.160156 C16.9335951,313.886717 17.265623,313.75 17.65625,313.75 L22.5,313.75 C21.8098924,313.75 21.2207056,313.505862 20.7324219,313.017578 C20.2441382,312.529294 20,311.940108 20,311.25 C20,310.559892 20.2441382,309.970706 20.7324219,309.482422 C21.2207056,308.994138 21.8098924,308.75 22.5,308.75 C23.1901076,308.75 23.7792944,308.994138 24.2675781,309.482422 C24.7558618,309.970706 25,310.559892 25,311.25 C25,310.559892 25.2441382,309.970706 25.7324219,309.482422 C26.2207056,308.994138 26.8098924,308.75 27.5,308.75 C28.1901076,308.75 28.7792944,308.994138 29.2675781,309.482422 C29.7558618,309.970706 30,310.559892 30,311.25 C30,311.940108 29.7558618,312.529294 29.2675781,313.017578 C28.7792944,313.505862 28.1901076,313.75 27.5,313.75 L32.34375,313.75 Z M22.5,312.34375 L23.59375,312.34375 L23.59375,311.25 C23.59375,310.950519 23.4863292,310.69336 23.2714844,310.478516 C23.0566396,310.263671 22.7994807,310.15625 22.5,310.15625 C22.2005193,310.15625 21.9433604,310.263671 21.7285156,310.478516 C21.5136708,310.69336 21.40625,310.950519 21.40625,311.25 C21.40625,311.549481 21.5136708,311.80664 21.7285156,312.021484 C21.9433604,312.236329 22.2005193,312.34375 22.5,312.34375 Z M24.296875,324.84375 L24.296875,318.75 L18.90625,318.75 L18.90625,324.84375 L24.296875,324.84375 Z M24.296875,317.34375 L24.296875,315.15625 L17.65625,315.15625 L17.65625,317.34375 L24.296875,317.34375 Z M26.40625,311.25 L26.40625,312.34375 L27.5,312.34375 C27.7994807,312.34375 28.0566396,312.236329 28.2714844,312.021484 C28.4863292,311.80664 28.59375,311.549481 28.59375,311.25 C28.59375,310.950519 28.4863292,310.69336 28.2714844,310.478516 C28.0566396,310.263671 27.7994807,310.15625 27.5,310.15625 C27.2005193,310.15625 26.9433604,310.263671 26.7285156,310.478516 C26.5136708,310.69336 26.40625,310.950519 26.40625,311.25 Z M31.09375,324.84375 L31.09375,318.75 L25.703125,318.75 L25.703125,324.84375 L31.09375,324.84375 Z M32.34375,317.34375 L32.34375,315.15625 L25.703125,315.15625 L25.703125,317.34375 L32.34375,317.34375 Z" id="gift---anticon"></path>
        </g>
    </g>
</svg>