<?xml version="1.0" encoding="UTF-8"?>
<svg width="13px" height="12px" viewBox="0 0 13 12" version="1.1" xmlns="http://www.w3.org/2000/svg" xmlns:xlink="http://www.w3.org/1999/xlink">
    <!-- Generator: Sketch 49.1 (51147) - http://www.bohemiancoding.com/sketch -->
    <title>arrow-right - anticon</title>
    <desc>Created with Sketch.</desc>
    <defs></defs>
    <g id="MobSite" stroke="none" stroke-width="1" fill="none" fill-rule="evenodd">
        <g id="01_Detail" transform="translate(-309.000000, -2246.000000)" fill="#4A4A4A">
            <g id="comments" transform="translate(0.000000, 1926.000000)">
                <path d="M309.703125,325.3125 L318.671875,325.3125 L315.296875,322.0625 C315.151041,321.927083 315.078125,321.765626 315.078125,321.578125 C315.078125,321.390624 315.143229,321.226563 315.273438,321.085938 C315.403646,320.945312 315.562499,320.875 315.75,320.875 C315.937501,320.875 316.104166,320.937499 316.25,321.0625 L320.84375,325.5 C320.989584,325.635417 321.0625,325.799478 321.0625,325.992188 C321.0625,326.184897 320.989584,326.348958 320.84375,326.484375 L316.21875,330.9375 C316.083333,331.062501 315.927084,331.125 315.75,331.125 C315.552082,331.125 315.385417,331.052084 315.25,330.90625 C315.114583,330.770833 315.049479,330.609376 315.054688,330.421875 C315.059896,330.234374 315.130208,330.072917 315.265625,329.9375 L318.640625,326.6875 L309.6875,326.6875 C309.510416,326.6875 309.354167,326.625001 309.21875,326.5 C309.083333,326.374999 309.010417,326.223959 309,326.046875 C308.989583,325.848957 309.054687,325.677084 309.195312,325.53125 C309.335938,325.385416 309.505207,325.3125 309.703125,325.3125 Z" id="arrow-right---anticon"></path>
            </g>
        </g>
    </g>
</svg>