<?xml version="1.0" encoding="UTF-8"?>
<svg width="18px" height="19px" viewBox="0 0 18 19" version="1.1" xmlns="http://www.w3.org/2000/svg" xmlns:xlink="http://www.w3.org/1999/xlink">
    <!-- Generator: Sketch 49.1 (51147) - http://www.bohemiancoding.com/sketch -->
    <title>customer-service - anticon</title>
    <desc>Created with Sketch.</desc>
    <defs></defs>
    <g id="MobSite" stroke="none" stroke-width="1" fill="none" fill-rule="evenodd">
        <g id="00_Home---Menu" transform="translate(-16.000000, -518.000000)" fill="#9ECDB5">
            <path d="M31.3671875,523.691406 C32.070316,523.912762 32.643227,524.326169 33.0859375,524.931641 C33.528648,525.537112 33.75,526.217444 33.75,526.972656 C33.75,527.910161 33.4179721,528.710934 32.7539062,529.375 C32.402342,529.726564 31.9987002,529.986978 31.5429688,530.15625 C31.4908852,530.911462 31.321616,531.634111 31.0351562,532.324219 C30.6966129,533.092452 30.2213572,533.772783 29.609375,534.365234 C28.9973928,534.957685 28.3007852,535.416665 27.5195312,535.742188 C26.7382773,536.06771 25.917973,536.236979 25.0585938,536.25 L24.9609375,536.25 C24.3489553,536.236979 23.824872,536.009117 23.3886719,535.566406 C22.9524718,535.123696 22.734375,534.596357 22.734375,533.984375 C22.734375,533.359372 22.955727,532.822268 23.3984375,532.373047 C23.841148,531.923826 24.3749969,531.699219 25,531.699219 L25.0585938,531.699219 C25.6575551,531.725261 26.1718729,531.953123 26.6015625,532.382812 C27.0312521,532.812502 27.2526041,533.32682 27.265625,533.925781 C27.265625,534.069011 27.2591146,534.212239 27.2460938,534.355469 C27.7669297,534.108072 28.2291646,533.782554 28.6328125,533.378906 C29.6484426,532.389318 30.15625,531.197924 30.15625,529.804688 L30.15625,525.195312 C30.15625,523.802076 29.6484426,522.610682 28.6328125,521.621094 C27.6171824,520.631505 26.3899812,520.136719 24.9511719,520.136719 C23.5123626,520.136719 22.2851613,520.631505 21.2695312,521.621094 C20.2669221,522.610682 19.765625,523.802076 19.765625,525.195312 L19.7851562,529.628906 C19.7851562,529.82422 19.7200527,529.986979 19.5898438,530.117188 C19.4596348,530.260417 19.296876,530.332031 19.1015625,530.332031 C19.0494789,530.332031 18.9973961,530.325521 18.9453125,530.3125 C18.2942676,530.16927 17.727867,529.856773 17.2460938,529.375 C16.5820279,528.710934 16.25,527.910161 16.25,526.972656 C16.25,526.204423 16.4778623,525.514326 16.9335938,524.902344 C17.1419281,524.615884 17.3893215,524.368491 17.6757812,524.160156 C17.9492201,523.964843 18.2421859,523.815105 18.5546875,523.710938 C18.6458338,523.346352 18.7630201,523.001304 18.90625,522.675781 C19.2317725,521.907548 19.7005178,521.227217 20.3125,520.634766 C20.9244822,520.042315 21.6210898,519.583335 22.4023438,519.257812 C23.2226604,518.919269 24.0755164,518.75 24.9609375,518.75 C25.8463586,518.75 26.6992146,518.919269 27.5195312,519.257812 C28.3138061,519.583335 29.0104137,520.03906 29.609375,520.625 C30.2213572,521.223961 30.6901025,521.907548 31.015625,522.675781 C31.1718758,523.014325 31.2890621,523.352863 31.3671875,523.691406 Z M16.6259765,528.129883 C16.6357421,528.152669 16.6471354,528.177083 16.6601562,528.203125 C16.6471354,528.170573 16.6357421,528.142904 16.6259765,528.120117 L16.6259765,528.129883 Z M16.8310546,528.569336 C16.8473306,528.598633 16.8684895,528.632812 16.8945312,528.671875 C16.8749999,528.639323 16.8570963,528.608398 16.8408203,528.579102 L16.8310546,528.569336 Z M18.1640625,528.554688 L18.0664062,528.457031 L18.1640625,528.554688 Z M18.3789062,528.515625 L18.3789062,525.371094 C18.1835928,525.527345 18.0273443,525.716145 17.9101562,525.9375 C17.7278637,526.250002 17.6367188,526.59505 17.6367188,526.972656 C17.6367188,527.519534 17.8385396,527.99479 18.2421875,528.398438 C18.2812502,528.4375 18.3268227,528.476562 18.3789062,528.515625 Z M18.5351562,528.828125 C18.5091145,528.815104 18.4895834,528.802083 18.4765625,528.789062 C18.4765625,528.802083 18.4830729,528.811849 18.4960938,528.818359 C18.5091146,528.82487 18.5221354,528.828125 18.5351562,528.828125 Z M18.7011718,523.735352 C18.688151,523.777669 18.6783854,523.815104 18.671875,523.847656 C18.6848959,523.808594 18.6979167,523.767904 18.7109375,523.725586 L18.7011718,523.735352 Z M19.0039062,530.15625 L19.0234375,530.15625 L19.0039062,530.15625 Z M19.0039062,530.15625 L18.984375,530.15625 L18.7890625,530.117188 C18.9062506,530.143229 18.9713541,530.15625 18.984375,530.15625 L19.0039062,530.15625 Z M19.6289062,529.648438 L19.6289062,529.628906 L19.609375,525.195312 L19.6289062,529.628906 L19.6289062,529.648438 Z M21.0839843,520.170898 C21.0514323,520.193685 21.0221355,520.214844 20.9960938,520.234375 C21.0416669,520.201823 21.0807293,520.174154 21.1132813,520.151367 L21.0839843,520.170898 Z M22.5462549,519.375224 C22.5126264,519.376471 22.4841874,519.382906 22.4609375,519.394531 C22.265624,519.479167 22.0735672,519.57194 21.8847656,519.672851 C22.0735672,519.57194 22.265624,519.479167 22.4609375,519.394531 C22.4739584,519.394531 22.4902343,519.391276 22.5097656,519.384766 C22.5241875,519.379958 22.5368344,519.376926 22.5477065,519.375668 L22.5462549,519.375224 Z M21.8847656,519.672851 C21.695964,519.773763 21.5104176,519.882812 21.328125,520 C21.5104176,519.882812 21.695964,519.773763 21.8847656,519.672851 Z M23.6328125,520.136719 L23.7695312,520.117188 L23.7304688,520.117188 C23.7174479,520.117188 23.6979168,520.120443 23.671875,520.126953 L23.6328125,520.136719 Z M27.3852539,519.377441 C27.3771159,519.375814 27.3697917,519.375 27.3632812,519.375 C27.3697917,519.375 27.3771159,519.375814 27.3852539,519.377441 Z M27.3852539,519.377441 C27.3933919,519.379069 27.4023437,519.38151 27.4121094,519.384766 C27.4316407,519.391276 27.4479166,519.394531 27.4609375,519.394531 C28.2291705,519.720054 28.9062471,520.169268 29.4921875,520.742188 L29.609375,520.859375 L29.4921875,520.742188 C28.9062471,520.169268 28.2291705,519.720054 27.4609375,519.394531 C27.4479166,519.394531 27.4316407,519.391276 27.4121094,519.384766 C27.4023437,519.38151 27.3933919,519.379069 27.3852539,519.377441 Z M29.8095703,521.064453 C29.8388671,521.097005 29.8697915,521.132812 29.9023438,521.171875 C29.8697915,521.132812 29.8388671,521.097005 29.8095703,521.064453 Z M29.8095703,521.064453 C29.7802735,521.031901 29.7526043,521.002604 29.7265625,520.976562 C29.7526043,521.002604 29.7802735,521.031901 29.8095703,521.064453 Z M29.9999999,521.289062 C29.9739583,521.25651 29.9544271,521.230469 29.9414062,521.210938 C29.967448,521.25 29.9934896,521.285807 30.0195312,521.318359 L29.9999999,521.289062 Z M25.8789062,533.984375 C25.8789062,533.736978 25.7942717,533.525392 25.625,533.349609 C25.4557283,533.173827 25.2473971,533.085938 25,533.085938 C24.7526029,533.085938 24.5442717,533.173827 24.375,533.349609 C24.2057283,533.525392 24.1210938,533.736978 24.1210938,533.984375 C24.1210938,534.218751 24.2057283,534.423827 24.375,534.599609 C24.5442717,534.775392 24.7526029,534.863281 25,534.863281 L25.0390625,534.863281 C25.2734387,534.85026 25.4720044,534.759115 25.6347656,534.589844 C25.7975269,534.420572 25.8789062,534.218751 25.8789062,533.984375 Z M26.0351562,534.140625 L26.0351562,533.925781 L26.0351562,534.140625 Z M27.0214844,534.599609 L27.03125,534.570312 L27.0214844,534.599609 Z M27.0214844,534.599609 L27.0117188,534.628906 C27.0507814,534.615885 27.0833332,534.602865 27.109375,534.589844 C27.0963541,534.589844 27.0800782,534.593099 27.0605469,534.599609 C27.0410155,534.60612 27.0247396,534.615885 27.0117188,534.628906 L27.0214844,534.599609 Z M29.4921875,534.257812 L29.375,534.375 C29.3880209,534.361979 29.4108071,534.342448 29.4433594,534.316406 C29.4759116,534.290364 29.4921875,534.270833 29.4921875,534.257813 Z M29.4921875,534.257812 L29.609375,534.140625 C29.5703123,534.192709 29.5312502,534.231771 29.4921875,534.257812 Z M30.3125,525.078125 L30.3125,530.078125 L30.3125,525.078125 Z M30.8154297,532.402344 C30.7926433,532.447917 30.7682293,532.493489 30.7421875,532.539062 C30.7682293,532.493489 30.7926433,532.447917 30.8154297,532.402344 Z M30.8154297,532.402344 C30.8382161,532.356771 30.8593749,532.311198 30.8789062,532.265625 C30.88947,532.244498 30.9000336,532.219085 30.9105972,532.189388 C30.9110975,532.195719 30.9058116,532.205736 30.8984375,532.216797 C30.8854166,532.236328 30.8789062,532.252604 30.8789062,532.265625 C30.8593749,532.311198 30.8382161,532.356771 30.8154297,532.402344 Z M30.9105972,532.189388 C30.9130544,532.18248 30.9155116,532.17534 30.9179688,532.167969 C30.9179688,532.173616 30.9167443,532.179875 30.9142954,532.186746 L30.9105972,532.189388 Z M30.9033203,522.788086 C30.9130859,522.810872 30.9244791,522.838542 30.9375,522.871094 C30.9309896,522.851562 30.9228516,522.830404 30.913086,522.807617 L30.9033203,522.788086 Z M30.8154297,522.597656 C30.7926433,522.552083 30.7682293,522.506511 30.7421875,522.460938 C30.7682293,522.506511 30.7926433,522.552083 30.8154297,522.597656 Z M31.2298995,523.809263 C31.230279,523.81555 31.2304688,523.821838 31.2304688,523.828125 C31.2304688,523.821546 31.2302841,523.814782 31.2299147,523.807833 L31.2298995,523.809263 Z M31.5136719,525.102539 C31.5527343,525.125325 31.5885415,525.149739 31.6210938,525.175781 C31.5885415,525.149739 31.5527343,525.125325 31.5136719,525.102539 Z M31.5136719,525.102539 C31.4746095,525.079753 31.4322919,525.058594 31.3867188,525.039062 C31.4322919,525.058594 31.4746095,525.079753 31.5136719,525.102539 Z M31.875,528.515625 C31.875,528.502604 31.8815104,528.496094 31.8945312,528.496094 C31.8945312,528.483073 31.9010416,528.476562 31.9140625,528.476562 C31.9010416,528.476562 31.8945312,528.483073 31.8945312,528.496094 C31.8815104,528.496094 31.875,528.502604 31.875,528.515625 C31.7317701,528.658855 31.5690113,528.776041 31.3867188,528.867188 C31.5690113,528.776041 31.7317701,528.658855 31.875,528.515625 Z M31.7578125,528.398438 C32.1614604,527.99479 32.3632812,527.519534 32.3632812,526.972656 C32.3632812,526.582029 32.265626,526.22396 32.0703125,525.898438 C31.9401035,525.677082 31.764324,525.481772 31.5429688,525.3125 L31.5429688,528.59375 C31.6210941,528.528646 31.692708,528.463542 31.7578125,528.398438 Z M33.4375,525.957031 L33.4570312,526.015625 C33.4505208,525.989583 33.4440104,525.966797 33.4375,525.947266 L33.4375,525.957031 Z M33.2742662,525.544537 C33.2827464,525.558606 33.292908,525.579402 33.3047509,525.606922 C33.2983398,525.606283 33.2942708,525.592448 33.2910156,525.576172 C33.2876793,525.55949 33.2834881,525.547083 33.278442,525.53895 L33.2742662,525.544537 Z M33.4277343,527.993164 C33.4212239,528.015951 33.4179688,528.033854 33.4179688,528.046875 C33.4244792,528.014323 33.4309896,527.986654 33.4375,527.963867 L33.4277343,527.993164 Z" id="customer-service---anticon"></path>
        </g>
    </g>
</svg>