<?xml version="1.0" encoding="UTF-8"?>
<svg width="20px" height="21px" viewBox="0 0 20 21" version="1.1" xmlns="http://www.w3.org/2000/svg" xmlns:xlink="http://www.w3.org/1999/xlink">
    <!-- Generator: Sketch 49.1 (51147) - http://www.bohemiancoding.com/sketch -->
    <title></title>
    <desc>Created with Sketch.</desc>
    <defs></defs>
    <g id="MobSite" stroke="none" stroke-width="1" fill="none" fill-rule="evenodd">
        <g id="00_Home---Menu" transform="translate(-15.000000, -481.000000)" fill="#9ECDB5">
            <path d="M30.0195312,482.847656 C31.5559973,483.733077 32.7701778,484.944003 33.6621094,486.480469 C34.5540409,488.016935 35,489.690095 35,491.5 C35,493.309905 34.5540409,494.983065 33.6621094,496.519531 C32.7701778,498.055997 31.5559973,499.270178 30.0195312,500.162109 C28.4830652,501.054041 26.8099049,501.5 25,501.5 C23.1900951,501.5 21.5169348,501.054041 19.9804688,500.162109 C18.4440027,499.270178 17.2298222,498.055997 16.3378906,496.519531 C15.4459591,494.983065 15,493.309905 15,491.5 C15,489.690095 15.4459591,488.016935 16.3378906,486.480469 C17.2298222,484.944003 18.4440027,483.729822 19.9804688,482.837891 C21.5169348,481.945959 23.1900951,481.5 25,481.5 C26.8099049,481.5 28.4830652,481.949214 30.0195312,482.847656 Z M31.0742188,497.574219 C31.8684936,496.779944 32.486977,495.868495 32.9296875,494.839844 C33.372398,493.785151 33.59375,492.671881 33.59375,491.5 C33.59375,490.328119 33.3658877,489.214849 32.9101562,488.160156 C32.4804666,487.131505 31.8684936,486.220056 31.0742188,485.425781 C30.2799439,484.631506 29.3684947,484.013023 28.3398438,483.570312 C27.285151,483.127602 26.1718809,482.90625 25,482.90625 C23.8281191,482.90625 22.714849,483.134112 21.6601562,483.589844 C20.6315053,484.019533 19.7200561,484.631506 18.9257812,485.425781 C18.1315064,486.220056 17.513023,487.131505 17.0703125,488.160156 C16.627602,489.214849 16.40625,490.328119 16.40625,491.5 C16.40625,492.671881 16.6341123,493.785151 17.0898438,494.839844 C17.5195334,495.868495 18.1315064,496.779944 18.9257812,497.574219 C19.7200561,498.368494 20.6315053,498.986977 21.6601562,499.429688 C22.714849,499.872398 23.8281191,500.09375 25,500.09375 C26.1718809,500.09375 27.285151,499.865888 28.3398438,499.410156 C29.3684947,498.980467 30.2799439,498.368494 31.0742188,497.574219 Z M27.9882812,492.75 C28.1315111,492.880209 28.203125,493.042968 28.203125,493.238281 C28.203125,494.123702 27.8906281,494.882158 27.265625,495.513672 C26.6406219,496.145185 25.8854211,496.460938 25,496.460938 C24.1145789,496.460938 23.3593781,496.145185 22.734375,495.513672 C22.1093719,494.882158 21.796875,494.123702 21.796875,493.238281 C21.796875,493.042968 21.8652337,492.876954 22.0019531,492.740234 C22.1386726,492.603515 22.3046865,492.535156 22.5,492.535156 C22.6953135,492.535156 22.8613274,492.603515 22.9980469,492.740234 C23.1347663,492.876954 23.203125,493.042968 23.203125,493.238281 C23.203125,493.733075 23.3789045,494.159503 23.7304688,494.517578 C24.082033,494.875653 24.5052059,495.054688 25,495.054688 C25.4947941,495.054688 25.917967,494.875653 26.2695312,494.517578 C26.6210955,494.159503 26.796875,493.733075 26.796875,493.238281 C26.796875,493.042968 26.8652337,492.876954 27.0019531,492.740234 C27.1386726,492.603515 27.3046865,492.535156 27.5,492.535156 C27.6953135,492.535156 27.8580723,492.60677 27.9882812,492.75 Z M19.1210938,489.800781 C18.8997385,489.566405 18.7890625,489.289715 18.7890625,488.970703 C18.7890625,488.651691 18.9029937,488.375001 19.1308594,488.140625 C19.3587251,487.906249 19.635415,487.789062 19.9609375,487.789062 C20.28646,487.789062 20.5631499,487.906249 20.7910156,488.140625 C21.0188813,488.375001 21.1328125,488.651691 21.1328125,488.970703 C21.1328125,489.289715 21.0188813,489.56315 20.7910156,489.791016 C20.5631499,490.018881 20.28646,490.132812 19.9609375,490.132812 C19.635415,490.132812 19.3554699,490.022137 19.1210938,489.800781 Z M29.1992188,489.800781 C28.9778635,489.566405 28.8671875,489.289715 28.8671875,488.970703 C28.8671875,488.651691 28.9811187,488.375001 29.2089844,488.140625 C29.4368501,487.906249 29.7102849,487.789062 30.0292969,487.789062 C30.3483089,487.789062 30.6249988,487.906249 30.859375,488.140625 C31.0937512,488.375001 31.2109375,488.651691 31.2109375,488.970703 C31.2109375,489.289715 31.0937512,489.56315 30.859375,489.791016 C30.6249988,490.018881 30.3483089,490.132812 30.0292969,490.132812 C29.7102849,490.132812 29.4335949,490.022137 29.1992188,489.800781 Z" id=""></path>
        </g>
    </g>
</svg>