<?xml version="1.0" encoding="UTF-8"?>
<svg width="18px" height="19px" viewBox="0 0 18 19" version="1.1" xmlns="http://www.w3.org/2000/svg" xmlns:xlink="http://www.w3.org/1999/xlink">
    <!-- Generator: Sketch 49.1 (51147) - http://www.bohemiancoding.com/sketch -->
    <title>flag - anticon</title>
    <desc>Created with Sketch.</desc>
    <defs></defs>
    <g id="MobSite" stroke="none" stroke-width="1" fill="none" fill-rule="evenodd">
        <g id="00_Home---Menu" transform="translate(-16.000000, -186.000000)" fill="#9ECDB5">
            <path d="M32.34375,190.5 C32.734377,190.5 33.0664049,190.636717 33.3398438,190.910156 C33.6132826,191.183595 33.75,191.515623 33.75,191.90625 L33.75,198.9375 C33.75,199.328127 33.6132826,199.660155 33.3398438,199.933594 C33.0664049,200.207033 32.734377,200.34375 32.34375,200.34375 L28.90625,200.34375 C28.515623,200.34375 28.1835951,200.207033 27.9101562,199.933594 C27.6367174,199.660155 27.5,199.328127 27.5,198.9375 L27.5,197.84375 L20.46875,197.84375 L20.46875,202.84375 C20.46875,203.234377 20.3320326,203.566405 20.0585938,203.839844 C19.7851549,204.113283 19.453127,204.25 19.0625,204.25 L17.65625,204.25 C17.265623,204.25 16.9335951,204.113283 16.6601562,203.839844 C16.3867174,203.566405 16.25,203.234377 16.25,202.84375 L16.25,188.15625 C16.25,187.765623 16.3867174,187.433595 16.6601562,187.160156 C16.9335951,186.886717 17.265623,186.75 17.65625,186.75 L19.0625,186.75 C19.4270852,186.75 19.7428372,186.870442 20.0097656,187.111328 C20.276694,187.352215 20.4296873,187.648436 20.46875,188 L27.5,188 C27.890627,188 28.2226549,188.136717 28.4960938,188.410156 C28.7695326,188.683595 28.90625,189.015623 28.90625,189.40625 L28.90625,190.5 L32.34375,190.5 Z M19.0625,202.84375 L19.0625,188.15625 L17.65625,188.15625 L17.65625,202.84375 L19.0625,202.84375 Z M27.5,196.4375 L27.5,189.40625 L20.46875,189.40625 L20.46875,196.4375 L27.5,196.4375 Z M32.34375,198.9375 L32.34375,191.90625 L28.90625,191.90625 L28.90625,198.9375 L32.34375,198.9375 Z" id="flag---anticon"></path>
        </g>
    </g>
</svg>