<?xml version="1.0" encoding="UTF-8"?>
<svg width="18px" height="19px" viewBox="0 0 18 19" version="1.1" xmlns="http://www.w3.org/2000/svg" xmlns:xlink="http://www.w3.org/1999/xlink">
    <!-- Generator: Sketch 49.1 (51147) - http://www.bohemiancoding.com/sketch -->
    <title>logout - simple-line-icons</title>
    <desc>Created with Sketch.</desc>
    <defs></defs>
    <g id="MobSite" stroke="none" stroke-width="1" fill="none" fill-rule="evenodd">
        <g id="00_Home---Menu-Profile" transform="translate(-15.000000, -253.000000)" fill="#9ECDB5">
            <g id="User-Menu" transform="translate(0.000000, 55.000000)">
                <path d="M17.0566406,207.6875 L19.1308594,209.744141 C19.2363287,209.861329 19.2890625,209.996093 19.2890625,210.148438 C19.2890625,210.300782 19.2363287,210.435546 19.1308594,210.552734 C19.0722653,210.59961 19.0078129,210.637695 18.9375,210.666992 C18.8671871,210.696289 18.7968754,210.710938 18.7265625,210.710938 C18.6562496,210.710938 18.5859379,210.696289 18.515625,210.666992 C18.4453121,210.637695 18.3808597,210.59961 18.3222656,210.552734 L15,207.142578 L18.3222656,203.732422 C18.4394537,203.615234 18.574218,203.556641 18.7265625,203.556641 C18.878907,203.556641 19.0136713,203.615234 19.1308594,203.732422 C19.2363287,203.837891 19.2890625,203.969726 19.2890625,204.12793 C19.2890625,204.286134 19.2363287,204.417968 19.1308594,204.523438 L17.0917969,206.5625 L26.7949219,206.5625 C26.9589852,206.5625 27.0937495,206.615234 27.1992188,206.720703 C27.304688,206.826172 27.3574219,206.960937 27.3574219,207.125 C27.3574219,207.277345 27.304688,207.409179 27.1992188,207.520508 C27.0937495,207.631836 26.9589852,207.6875 26.7949219,207.6875 L17.0566406,207.6875 Z M31.875,198.125 C32.179689,198.125 32.4433583,198.233397 32.6660156,198.450195 C32.888673,198.666993 33,198.933592 33,199.25 L33,215 C33,215.316408 32.888673,215.583007 32.6660156,215.799805 C32.4433583,216.016603 32.179689,216.125 31.875,216.125 L22.3125,216.125 C21.9960922,216.125 21.7294933,216.016603 21.5126953,215.799805 C21.2958974,215.583007 21.1875,215.316408 21.1875,215 L21.1875,209.919922 L22.3125,209.919922 L22.3125,214.314453 C22.3125,214.501954 22.3798821,214.663085 22.5146484,214.797852 C22.6494147,214.932618 22.8105459,215 22.9980469,215 L31.1894531,215 C31.3769541,215 31.5351556,214.932618 31.6640625,214.797852 C31.7929694,214.663085 31.8574219,214.501954 31.8574219,214.314453 L31.8398438,199.935547 C31.8398438,199.748046 31.7753913,199.586915 31.6464844,199.452148 C31.5175775,199.317382 31.3593759,199.25 31.171875,199.25 L22.9980469,199.25 C22.8105459,199.25 22.6494147,199.317382 22.5146484,199.452148 C22.3798821,199.586915 22.3125,199.748046 22.3125,199.935547 L22.3125,204.3125 L21.1875,204.3125 L21.1875,199.25 C21.1875,198.933592 21.2958974,198.666993 21.5126953,198.450195 C21.7294933,198.233397 21.9960922,198.125 22.3125,198.125 L31.875,198.125 Z" id="logout---simple-line-icons"></path>
            </g>
        </g>
    </g>
</svg>